<svg width="1280" height="400" viewBox="0 0 1280 401" fill="none" xmlns="http://www.w3.org/2000/svg">
<g opacity="0.3">
<path d="M21.2125 397.124L31.1558 400.038M21.2125 397.124L50.6787 397.124M21.2125 397.124L10.9387 394.114M21.2125 397.124L0.344437 397.124M31.1558 400.038L27.5377 400.037L23.957 400.031L20.4509 400.013L17.0547 399.978L13.8058 399.922L10.7387 399.836L7.89026 399.718L5.24642 399.567L2.97762 399.357L0.912083 399.115L0.344437 399.03L0.344437 397.124M31.1558 400.038L60.1482 400.038M60.1482 400.038L89.1405 400.038M60.1482 400.038L50.6787 397.124M89.1405 400.038L118.134 400.038M89.1405 400.038L80.1448 397.124M118.134 400.038L147.126 400.038M118.134 400.038L109.61 397.124M147.126 400.038L176.118 400.038M147.126 400.038L139.076 397.124M176.118 400.038L205.111 400.038M176.118 400.038L168.543 397.124M205.111 400.038L234.104 400.038M205.111 400.038L198.009 397.124M234.104 400.038L263.096 400.038M234.104 400.038L227.475 397.124M263.096 400.038L292.089 400.038M263.096 400.038L256.941 397.124M292.089 400.038L321.082 400.038M292.089 400.038L286.407 397.124M321.082 400.038L350.074 400.038M321.082 400.038L315.873 397.124M350.074 400.038L379.066 400.038M350.074 400.038L345.339 397.124M379.066 400.038L408.059 400.039M379.066 400.038L378.014 399.319L376.419 398.229L374.805 397.124M408.059 400.039L437.052 400.039M408.059 400.039L407.124 399.319L404.272 397.124M437.052 400.039L466.044 400.039M437.052 400.039L433.738 397.124M466.044 400.039L495.037 400.039M466.044 400.039L464.99 398.957L463.922 397.862L463.564 397.494L463.203 397.124M495.037 400.039L524.03 400.039M495.037 400.039L494.159 398.957L493.863 398.593L493.566 398.229L492.669 397.124M524.03 400.039L553.022 400.039M524.03 400.039L522.135 397.124M553.022 400.039L552.847 399.679L552.672 399.319L551.782 397.494L551.602 397.124M553.022 400.039L582.014 400.039M582.014 400.039L611.008 400.039M582.014 400.039L581.068 397.124M611.008 400.039L640 400.039M611.008 400.039L610.832 398.957L610.534 397.124M640 400.039L668.992 400.039M640 400.039L640 397.124M668.992 400.039L697.985 400.039M668.992 400.039L669.168 398.957L669.466 397.124M697.985 400.039L726.978 400.039M697.985 400.039L698.932 397.124M726.978 400.039L727.153 399.679L727.328 399.319L728.218 397.494L728.398 397.124M726.978 400.039L755.97 400.039M755.97 400.039L784.963 400.039M755.97 400.039L757.624 397.494L757.864 397.124M784.963 400.039L813.956 400.039M784.963 400.039L785.841 398.957L786.137 398.593L786.732 397.862L787.03 397.494L787.331 397.124M813.956 400.039L842.948 400.039M813.956 400.039L815.01 398.957L816.078 397.862L816.436 397.494L816.797 397.124M842.948 400.039L871.94 400.039M842.948 400.039L846.262 397.124M871.94 400.039L900.933 400.039M871.94 400.039L872.876 399.319L875.728 397.124M900.933 400.039L929.926 400.039M900.933 400.039L905.195 397.124M929.926 400.039L958.918 400.039M929.926 400.039L934.661 397.124M958.918 400.039L987.911 400.039M958.918 400.039L964.127 397.124M987.911 400.039L1016.9 400.039M987.911 400.039L993.593 397.124M1016.9 400.039L1045.9 400.039M1016.9 400.039L1023.06 397.124M1045.9 400.039L1074.89 400.039M1045.9 400.039L1052.53 397.124M1074.89 400.039L1103.88 400.039M1074.89 400.039L1081.99 397.124M1103.88 400.039L1132.87 400.039M1103.88 400.039L1111.46 397.124M1132.87 400.039L1161.87 400.039M1132.87 400.039L1140.92 397.124M1161.87 400.039L1190.86 400.039M1161.87 400.039L1170.39 397.124M1190.86 400.039L1219.85 400.039M1190.86 400.039L1199.86 397.124M1219.85 400.039L1248.84 400.039M1219.85 400.039L1229.32 397.124M1248.84 400.039L1252.46 400.037L1256.04 400.031L1259.55 400.013L1262.95 399.978L1266.19 399.922L1269.26 399.836L1272.11 399.718L1274.75 399.567L1277.02 399.358L1279.09 399.115L1279.66 399.03L1279.66 397.124M1248.84 400.039L1258.79 397.124M1199.86 397.124L1170.39 397.124M1199.86 397.124L1229.32 397.124M1199.86 397.124L1209.15 394.114M1170.39 397.124L1179.2 394.114M1170.39 397.124L1140.92 397.124M1081.99 397.124L1052.53 397.124M1081.99 397.124L1111.46 397.124M1081.99 397.124L1083.8 396.381L1089.33 394.114M1052.53 397.124L1059.37 394.114M1052.53 397.124L1023.06 397.124M964.127 397.124L934.661 397.124M964.127 397.124L993.593 397.124M964.127 397.124L965.455 396.381L966.124 396.008L969.509 394.114M934.661 397.124L935.264 396.754L935.869 396.381L939.553 394.114M934.661 397.124L905.195 397.124M846.262 397.124L846.685 396.754L849.687 394.114M846.262 397.124L816.797 397.124M846.262 397.124L875.728 397.124M816.797 397.124L817.521 396.381L817.886 396.007L818.252 395.632L819.732 394.114M816.797 397.124L787.331 397.124M728.398 397.124L698.932 397.124M728.398 397.124L757.864 397.124M728.398 397.124L729.866 394.114M698.932 397.124L699.053 396.754L699.173 396.381L699.295 396.007L699.663 394.876L699.91 394.114M698.932 397.124L669.466 397.124M610.534 397.124L581.068 397.124M610.534 397.124L640 397.124M610.534 397.124L610.045 394.114M581.068 397.124L580.947 396.754L580.827 396.381L580.705 396.007L580.09 394.114M581.068 397.124L551.602 397.124M492.669 397.124L463.203 397.124M492.669 397.124L522.135 397.124M492.669 397.124L492.066 396.381L490.842 394.876L490.534 394.496L490.223 394.114M463.203 397.124L462.479 396.381L462.114 396.007L461.748 395.632L460.268 394.114M463.203 397.124L433.738 397.124M374.805 397.124L345.339 397.124M374.805 397.124L404.272 397.124M374.805 397.124L373.718 396.381L373.171 396.007L370.402 394.114M345.339 397.124L344.736 396.754L344.131 396.381L340.447 394.114M345.339 397.124L315.873 397.124M256.941 397.124L227.475 397.124M256.941 397.124L286.407 397.124M256.941 397.124L255.37 396.381L254.58 396.007L250.581 394.114M227.475 397.124L220.626 394.114M227.475 397.124L198.009 397.124M139.076 397.124L109.61 397.124M139.076 397.124L168.543 397.124M139.076 397.124L130.76 394.114M109.61 397.124L100.804 394.114M109.61 397.124L80.1448 397.124M1279.76 369.873L1279.66 369.873M1250.1 369.873L1238.85 373.719M1250.1 369.873L1261.78 365.88M1250.1 369.873L1216.21 369.873M1250.1 369.873L1279.66 369.873M1238.85 373.719L1272.12 373.719M1238.85 373.719L1228.01 377.426M1238.85 373.719L1205.58 373.719M1272.12 373.719L1260.68 377.426M1272.12 373.719L1279.66 373.719M1272.12 373.719L1279.66 371.279M1238.99 384.451L1207.46 384.451M1238.99 384.451L1228.7 387.783M1238.99 384.451L1270.51 384.451M1238.99 384.451L1249.64 381.001M1207.46 384.451L1197.71 387.783M1207.46 384.451L1217.55 381.001M1207.46 384.451L1175.93 384.451M1228.7 387.783L1197.71 387.783M1228.7 387.783L1218.76 391.002M1228.7 387.783L1259.68 387.783M1197.71 387.783L1166.73 387.783M1197.71 387.783L1188.3 391.002M1279.98 309.167L1279.66 309.167M1252.63 309.167L1238.12 315.543M1252.63 309.167L1267.86 302.473M1252.63 309.167L1208.87 309.167M1252.63 309.167L1279.66 309.167M1238.12 315.543L1224.29 321.625M1238.12 315.543L1195.4 315.543M1238.12 315.543L1279.66 315.543M1266.02 321.625L1224.29 321.625M1266.02 321.625L1251.87 327.431M1266.02 321.625L1279.66 321.625M1266.02 321.625L1279.66 316.032M1238.34 332.981L1198.45 332.981M1238.34 332.981L1225.4 338.291M1238.34 332.981L1278.23 332.981M1238.34 332.981L1251.87 327.431M1198.45 332.981L1186.37 338.291M1198.45 332.981L1211.08 327.431M1198.45 332.981L1158.56 332.981M1225.4 338.291L1186.37 338.291M1225.4 338.291L1264.43 338.291M1225.4 338.291L1213 343.375M1186.37 338.291L1174.8 343.375M1186.37 338.291L1147.35 338.29M1189.73 352.926L1153.08 352.926M1189.73 352.926L1178.78 357.415M1189.73 352.926L1226.37 352.926M1189.73 352.926L1201.12 348.25M1153.08 352.926L1142.86 357.415M1153.08 352.926L1163.72 348.25M1153.08 352.926L1116.43 352.926M1178.78 357.415L1142.86 357.415M1178.78 357.415L1214.7 357.415M1178.78 357.415L1168.27 361.73M1142.86 357.415L1133.05 361.73M1142.86 357.415L1106.94 357.415M1148.42 369.873L1114.52 369.873M1148.42 369.873L1139.04 373.719M1148.42 369.873L1182.31 369.873M1148.42 369.873L1158.15 365.88M1114.52 369.873L1105.77 373.719M1114.52 369.873L1123.61 365.88M1114.52 369.873L1080.63 369.873M1139.04 373.719L1105.77 373.719M1139.04 373.719L1172.31 373.719M1139.04 373.719L1130.01 377.426M1105.77 373.719L1097.34 377.426M1105.77 373.719L1072.5 373.719M1112.88 384.451L1081.36 384.451M1112.88 384.451L1104.76 387.783M1112.88 384.451L1144.41 384.451M1112.88 384.451L1121.29 381.001M1081.36 384.451L1073.78 387.783M1081.36 384.451L1089.21 381.001M1081.36 384.451L1049.83 384.451M1104.76 387.783L1073.78 387.783M1104.76 387.783L1096.92 391.002M1104.76 387.783L1135.75 387.783M1073.78 387.783L1042.79 387.783M1073.78 387.783L1066.45 391.002M1257.24 198.617L1236.82 211.181M1257.24 198.617L1279.1 185.162M1257.24 198.617L1195.51 198.617M1257.24 198.617L1279.66 198.617M1236.82 211.181L1217.71 222.941M1236.82 211.181L1177.14 211.181M1236.82 211.181L1279.66 211.181M1237.23 244.338L1182.94 244.338M1237.23 244.338L1219.79 254.098M1237.23 244.338L1255.76 233.971M1237.23 244.338L1279.66 244.338M1182.94 244.338L1167.08 254.098M1182.94 244.338L1199.79 233.971M1182.94 244.338L1128.65 244.338M1219.79 254.098L1167.08 254.098M1219.79 254.098L1272.49 254.098M1219.79 254.098L1203.33 263.305M1167.08 254.098L1152.12 263.305M1167.08 254.098L1114.37 254.098M1173.07 280.235L1124.61 280.235M1173.07 280.235L1159.12 288.035M1173.07 280.235L1221.53 280.235M1173.07 280.235L1187.78 272.003M1124.61 280.235L1111.93 288.035M1124.61 280.235L1137.98 272.003M1124.61 280.235L1076.15 280.235M1159.12 288.035L1111.93 288.035M1159.12 288.035L1206.32 288.035M1159.12 288.035L1145.89 295.438M1111.93 288.035L1099.9 295.438M1111.93 288.035L1064.74 288.035M1121.35 309.167L1077.59 309.167M1121.35 309.167L1109.95 315.543M1121.35 309.167L1165.11 309.167M1121.35 309.167L1133.32 302.473M1077.59 309.167L1067.23 315.543M1077.59 309.167L1088.47 302.473M1077.59 309.167L1033.83 309.167M1109.95 315.543L1067.23 315.543M1109.95 315.543L1152.68 315.543M1109.95 315.543L1099.08 321.624M1067.23 315.543L1057.35 321.624M1067.23 315.543L1024.51 315.543M1078.78 332.981L1038.89 332.981M1078.78 332.981L1069.29 338.29M1078.78 332.981L1118.67 332.981M1078.78 332.981L1088.7 327.431M1038.89 332.981L1030.27 338.29M1038.89 332.981L1047.91 327.431M1038.89 332.981L999.005 332.981M1069.29 338.29L1030.27 338.29M1069.29 338.29L1108.32 338.29M1069.29 338.29L1060.2 343.375M1030.27 338.29L1022 343.375M1030.27 338.29L991.24 338.29M1043.13 352.926L1006.48 352.926M1043.13 352.926L1035.11 357.415M1043.13 352.926L1079.78 352.926M1043.13 352.926L1051.49 348.25M1006.48 352.926L1005.56 353.497L999.189 357.415M1006.48 352.926L1014.08 348.25M1006.48 352.926L969.836 352.926M1035.11 357.415L999.189 357.415M1035.11 357.415L1071.03 357.415M1035.11 357.415L1027.39 361.73M999.189 357.415L992.177 361.73M999.189 357.415L963.269 357.415M1012.84 369.873L978.945 369.873M1012.84 369.873L1005.96 373.719M1012.84 369.873L1046.73 369.873M1012.84 369.873L1019.98 365.879M978.945 369.873L972.695 373.719M978.945 369.873L981.349 368.393L985.435 365.879M978.945 369.873L945.05 369.873M1005.96 373.719L972.695 373.719M1005.96 373.719L1039.23 373.719M1005.96 373.719L999.338 377.426M972.695 373.719L966.671 377.426M972.695 373.719L939.425 373.719M986.781 384.451L955.256 384.451M986.781 384.451L980.826 387.783M986.781 384.451L1018.31 384.451M986.781 384.451L992.948 381.001M955.256 384.451L951.177 386.96L950.508 387.373L949.841 387.783M955.256 384.451L960.862 381.001M955.256 384.451L923.73 384.451M980.826 387.783L949.841 387.783M980.826 387.783L975.072 391.002M980.826 387.783L1011.81 387.783M949.841 387.783L918.857 387.783M949.841 387.783L944.611 391.002M1234.87 55.4902L1149.89 55.4902M1234.87 55.4902L1208.11 79.0143M1234.87 55.4902L1264.28 29.6401M1234.87 55.4902L1279.66 55.4897M1149.89 55.4902L1126.95 79.0143M1149.89 55.4902L1175.09 29.6401M1149.89 55.4902L1064.91 55.4902M1208.11 79.0143L1126.95 79.0143M1208.11 79.0143L1183.66 100.513M1208.11 79.0143L1279.66 79.0144M1126.95 79.0143L1105.99 100.513M1126.95 79.0143L1045.8 79.0143M1140.56 138.399L1069.05 138.399M1140.56 138.399L1121.48 155.175M1140.56 138.399L1212.07 138.399M1140.56 138.399L1161.22 120.238M1069.05 138.399L1052.7 155.175M1069.05 138.399L1086.76 120.238M1069.05 138.399L997.545 138.399M1121.48 155.175L1052.7 155.175M1121.48 155.175L1190.26 155.175M1121.48 155.175L1103.8 170.719M1052.7 155.175L1037.54 170.719M1052.7 155.175L983.915 155.175M1072.07 198.617L1010.34 198.617M1072.07 198.617L1057.77 211.181M1072.07 198.617L1133.79 198.617M1072.07 198.617L1087.37 185.162M1010.34 198.617L998.091 211.181M1010.34 198.617L1023.46 185.162M1010.34 198.617L948.618 198.617M1057.77 211.181L998.091 211.181M1057.77 211.181L1117.46 211.181M1057.77 211.181L1044.4 222.941M998.091 211.181L986.625 222.941M998.091 211.181L938.409 211.181M1020.06 244.338L965.764 244.338M1020.06 244.338L1008.95 254.098M1020.06 244.338L1074.35 244.338M1020.06 244.338L1031.85 233.971M965.764 244.338L956.247 254.098M965.764 244.338L975.871 233.971M965.764 244.338L911.47 244.338M1008.95 254.098L956.247 254.098M1008.95 254.098L1061.66 254.098M1008.95 254.098L998.482 263.305M956.247 254.098L947.271 263.305M956.247 254.098L903.539 254.098M979.225 280.235L930.764 280.235M979.225 280.235L970.352 288.035M979.225 280.235L1027.69 280.235M979.225 280.235L988.588 272.003M930.764 280.235L923.159 288.035M930.764 280.235L938.79 272.003M930.764 280.235L882.303 280.235M970.352 288.035L923.159 288.035M970.352 288.035L1017.55 288.035M970.352 288.035L961.931 295.438M923.159 288.035L915.941 295.438M923.159 288.035L875.966 288.035M946.315 309.167L902.556 309.167M946.315 309.167L939.062 315.543M946.315 309.167L990.075 309.167M946.315 309.167L953.929 302.473M902.556 309.167L896.339 315.543M902.556 309.167L909.082 302.473M902.556 309.167L858.797 309.167M939.062 315.543L896.339 315.543M939.062 315.543L981.785 315.543M939.062 315.543L932.144 321.624M896.339 315.543L890.409 321.624M896.339 315.543L853.616 315.543M919.226 332.981L879.336 332.981M919.226 332.981L913.186 338.29M919.226 332.981L959.115 332.981M919.226 332.981L925.539 327.431M879.336 332.981L874.16 338.29M879.336 332.981L884.747 327.431M879.336 332.981L839.447 332.981M913.186 338.29L874.16 338.29M913.186 338.29L952.213 338.29M913.186 338.29L907.402 343.375M874.16 338.29L869.202 343.375M874.16 338.29L835.133 338.29M896.539 352.925L859.89 352.925M896.539 352.925L891.432 357.415M896.539 352.925L933.187 352.925M896.539 352.925L901.858 348.25M859.89 352.925L860.451 352.352L864.45 348.25M859.89 352.925L855.513 357.415M859.89 352.925L823.242 352.925M891.432 357.415L855.513 357.415M891.432 357.415L927.351 357.415M891.432 357.415L886.524 361.73M855.513 357.415L851.306 361.73M855.513 357.415L819.594 357.415M877.262 369.873L843.367 369.873M877.262 369.873L872.887 373.719M877.262 369.873L911.156 369.873M877.262 369.873L881.804 365.879M843.367 369.873L839.617 373.719M843.367 369.873L844.81 368.393L845.783 367.394L847.26 365.879M843.367 369.873L809.473 369.873M872.887 373.719L839.617 373.719M872.887 373.719L906.156 373.719M872.887 373.719L868.67 377.426M839.617 373.719L838.246 375.125L837.342 376.052L836.002 377.426M839.617 373.719L806.348 373.719M860.678 384.451L829.153 384.451M860.678 384.451L857.824 386.96L856.889 387.783M860.678 384.451L892.204 384.451M860.678 384.451L864.105 381.439L864.603 381.001M829.153 384.451L826.706 386.96L826.305 387.373L825.905 387.783M829.153 384.451L830.821 382.741L832.517 381.001M829.153 384.451L797.628 384.451M856.889 387.783L825.905 387.783M856.889 387.783L853.227 391.002M856.889 387.783L887.873 387.783M825.905 387.783L794.921 387.783M825.905 387.783L822.766 391.002M894.945 55.4902L809.964 55.4902M894.945 55.4902L883.478 79.0143M894.945 55.4902L979.927 55.4902M894.945 55.4902L907.547 29.6401M809.964 55.4902L802.318 79.0143M809.964 55.4902L818.365 29.6401M809.964 55.4902L724.982 55.4902M883.478 79.0143L802.318 79.0143M883.478 79.0143L964.637 79.0143M883.478 79.0143L872.996 100.513M802.318 79.0143L795.331 100.513M802.318 79.0143L721.159 79.0143M854.527 138.399L783.018 138.399M854.527 138.399L846.349 155.175M854.527 138.399L926.037 138.399M854.527 138.399L863.381 120.238M783.018 138.399L777.566 155.175M783.018 138.399L788.92 120.238M783.018 138.399L711.509 138.399M846.349 155.175L777.566 155.175M846.349 155.175L915.132 155.175M846.349 155.175L838.771 170.719M777.566 155.175L772.514 170.719M777.566 155.175L708.783 155.175M825.171 198.617L763.447 198.617M825.171 198.617L819.046 211.181M825.171 198.617L886.894 198.617M825.171 198.617L831.73 185.162M763.447 198.617L759.364 211.181M763.447 198.617L767.82 185.162M763.447 198.617L701.723 198.617M819.046 211.181L759.364 211.181M819.046 211.181L878.727 211.181M819.046 211.181L813.313 222.941M759.364 211.181L755.542 222.941M759.364 211.181L699.682 211.181M802.882 244.338L748.588 244.338M802.882 244.338L798.123 254.098M802.882 244.338L857.176 244.338M802.882 244.338L807.936 233.971M748.588 244.338L745.416 254.098M748.588 244.338L751.957 233.971M748.588 244.338L694.294 244.338M798.123 254.098L745.416 254.098M798.123 254.098L850.831 254.098M798.123 254.098L793.635 263.305M745.416 254.098L742.423 263.305M745.416 254.098L692.708 254.098M785.382 280.235L736.921 280.235M785.382 280.235L781.58 288.035M785.382 280.235L833.843 280.235M785.382 280.235L789.395 272.003M736.921 280.235L734.386 288.035M736.921 280.235L739.596 272.003M736.921 280.235L688.461 280.235M781.58 288.035L734.386 288.035M781.58 288.035L828.772 288.035M781.58 288.035L777.97 295.438M734.386 288.035L731.98 295.438M734.386 288.035L687.193 288.035M771.278 309.166L727.519 309.166M771.278 309.166L768.17 315.543M771.278 309.166L815.037 309.167M771.278 309.166L774.541 302.473M727.519 309.166L725.446 315.543M727.519 309.166L729.694 302.473M727.519 309.166L683.759 309.166M768.17 315.543L725.446 315.543M768.17 315.543L810.893 315.543M768.17 315.543L767.041 317.857L765.205 321.624M725.446 315.543L723.47 321.624M725.446 315.543L682.723 315.543M759.668 332.981L719.779 332.981M759.668 332.981L757.08 338.29M759.668 332.981L799.558 332.981M759.668 332.981L761.686 328.842L762.374 327.431M719.779 332.981L719.123 334.999L718.053 338.29M719.779 332.981L721.583 327.431M719.779 332.981L679.889 332.981M757.08 338.29L756.764 338.938L754.601 343.375M757.08 338.29L718.053 338.29M757.08 338.29L796.107 338.29M718.053 338.29L717.425 340.223L717.218 340.86L717.012 341.494L716.401 343.375M718.053 338.29L679.026 338.29M749.945 352.925L713.297 352.925M749.945 352.925L748.84 355.193L748.567 355.753L748.296 356.31L748.025 356.864L747.757 357.415M749.945 352.925L786.594 352.925M749.945 352.925L752.225 348.25M713.297 352.925L712.197 356.31L712.017 356.864L711.838 357.415M713.297 352.925L714.816 348.25M713.297 352.925L676.648 352.925M747.757 357.415L711.838 357.415M747.757 357.415L783.675 357.415M747.757 357.415L746.432 360.132L746.171 360.667L745.653 361.73M711.838 357.415L710.955 360.132L710.781 360.667L710.608 361.2L710.435 361.73M711.838 357.415L675.919 357.415M741.683 369.873L707.789 369.873M741.683 369.873L739.808 373.719M741.683 369.873L775.578 369.873M741.683 369.873L742.164 368.889L742.892 367.394L743.63 365.879M707.789 369.873L707.949 369.382L708.922 366.387L709.087 365.879M707.789 369.873L706.539 373.719M707.789 369.873L673.894 369.873M739.808 373.719L706.539 373.719M739.808 373.719L773.078 373.719M739.808 373.719L738.001 377.426M706.539 373.719L706.082 375.125L705.931 375.589L705.781 376.052L705.334 377.426M706.539 373.719L673.269 373.719M734.576 384.451L703.051 384.451M734.576 384.451L733.353 386.96L732.953 387.783M734.576 384.451L766.102 384.451M734.576 384.451L735.201 383.172L735.41 382.741L735.621 382.309L736.259 381.001M703.051 384.451L702.913 384.874L702.641 385.714L702.37 386.547L701.969 387.783M703.051 384.451L703.607 382.741L703.747 382.309L704.03 381.439L704.172 381.001M703.051 384.451L671.526 384.451M732.953 387.783L701.969 387.783M732.953 387.783L731.577 390.605L731.383 391.002M732.953 387.783L763.937 387.783M701.969 387.783L701.835 388.191L701.703 388.598L701.571 389.003L701.441 389.406L701.051 390.605L700.922 391.002M701.969 387.783L670.984 387.783M555.018 55.4902L470.036 55.4901M555.018 55.4902L558.841 79.0143M555.018 55.4902L640 55.4902M555.018 55.4902L550.817 29.64M470.036 55.4901L477.681 79.0143M470.036 55.4901L461.635 29.64M470.036 55.4901L385.055 55.4901M558.841 79.0143L477.681 79.0143M558.841 79.0143L640 79.0143M558.841 79.0143L562.334 100.513M477.681 79.0143L484.669 100.513M477.681 79.0143L396.522 79.0143M568.491 138.399L496.982 138.399M568.491 138.399L571.217 155.175M568.491 138.399L640 138.399M568.491 138.399L565.539 120.238M496.982 138.399L502.434 155.175M496.982 138.399L491.08 120.238M496.982 138.399L425.473 138.399M571.217 155.175L502.434 155.175M571.217 155.175L640 155.175M571.217 155.175L573.743 170.719M502.434 155.175L507.486 170.719M502.434 155.175L433.651 155.175M578.277 198.617L516.552 198.617M578.277 198.617L580.318 211.181M578.277 198.617L640 198.617M578.277 198.617L576.09 185.162M516.552 198.617L520.636 211.181M516.552 198.617L512.18 185.162M516.552 198.617L454.829 198.617M580.318 211.181L520.636 211.181M580.318 211.181L640 211.181M580.318 211.181L582.229 222.941M520.636 211.181L524.458 222.941M520.636 211.181L460.954 211.181M585.706 244.338L531.412 244.338M585.706 244.338L587.292 254.098M585.706 244.338L640 244.338M585.706 244.338L584.022 233.971M531.412 244.338L534.584 254.098M531.412 244.338L528.043 233.971M531.412 244.338L477.118 244.338M587.292 254.098L534.584 254.098M587.292 254.098L640 254.098M587.292 254.098L588.788 263.305M534.584 254.098L537.576 263.305M534.584 254.098L481.876 254.098M591.539 280.235L543.079 280.235M591.539 280.235L592.807 288.035M591.539 280.235L640 280.235M591.539 280.235L590.201 272.003M543.079 280.235L545.613 288.035M543.079 280.235L540.404 272.003M543.079 280.235L494.618 280.235M592.807 288.035L545.613 288.035M592.807 288.035L640 288.035M592.807 288.035L594.01 295.438M545.613 288.035L548.019 295.438M545.613 288.035L498.42 288.035M596.241 309.166L552.481 309.166M596.241 309.166L597.277 315.543M596.241 309.166L640 309.166M596.241 309.166L595.153 302.473M552.481 309.166L554.554 315.543M552.481 309.166L550.306 302.473M552.481 309.166L508.722 309.166M597.277 315.543L554.554 315.543M597.277 315.543L640 315.543M597.277 315.543L598.265 321.624M554.554 315.543L556.53 321.624M554.554 315.543L511.83 315.543M600.111 332.981L560.221 332.981M600.111 332.981L600.974 338.29M600.111 332.981L640 332.981M600.111 332.981L599.209 327.431M560.221 332.981L561.735 337.639L561.947 338.29M560.221 332.981L558.417 327.431M560.221 332.981L520.332 332.981M600.974 338.29L601.078 338.938L601.8 343.375M600.974 338.29L561.947 338.29M600.974 338.29L640 338.29M561.947 338.29L562.575 340.223L562.782 340.86L562.988 341.494L563.599 343.375M561.947 338.29L522.92 338.29M603.352 352.925L566.703 352.925M603.352 352.925L604.081 357.415M603.352 352.925L640 352.925M603.352 352.925L603.07 351.195L602.975 350.612L602.881 350.026L602.689 348.845L602.591 348.25M566.703 352.925L567.803 356.31L568.163 357.415M566.703 352.925L565.184 348.25M566.703 352.925L530.055 352.925M604.081 357.415L568.163 357.415M604.081 357.415L640 357.415M604.081 357.415L604.782 361.73M568.163 357.415L569.045 360.132L569.219 360.667L569.392 361.2L569.565 361.73M568.163 357.415L532.243 357.415M606.106 369.873L572.211 369.873M606.106 369.873L606.731 373.719M606.106 369.873L640 369.873M606.106 369.873L605.457 365.879M572.211 369.873L572.051 369.382L571.078 366.387L570.913 365.879M572.211 369.873L573.461 373.719M572.211 369.873L538.317 369.873M606.731 373.719L573.461 373.719M606.731 373.719L640 373.719M606.731 373.719L607.333 377.426M573.461 373.719L573.918 375.125L574.069 375.589L574.219 376.052L574.666 377.426M573.461 373.719L540.192 373.719M608.474 384.451L576.949 384.451M608.474 384.451L609.016 387.783M608.474 384.451L640 384.451M608.474 384.451L607.914 381.001M576.949 384.451L577.087 384.874L577.36 385.714L577.495 386.131L577.765 386.96L577.898 387.373L578.032 387.783M576.949 384.451L576.393 382.741L576.253 382.309L575.97 381.439L575.828 381.001M576.949 384.451L545.424 384.451M609.016 387.783L609.082 388.191L609.149 388.598L609.214 389.003L609.539 391.002M609.016 387.783L578.032 387.783M609.016 387.783L640 387.783M578.032 387.783L547.047 387.783M578.032 387.783L578.297 388.598L578.428 389.003L578.559 389.406L578.949 390.605L579.078 391.002M215.091 55.4901L130.109 55.4901M215.091 55.4901L234.205 79.0143M215.091 55.4901L300.072 55.4901M215.091 55.4901L194.087 29.64M130.109 55.4901L153.046 79.0143M130.109 55.4901L104.906 29.64M130.109 55.4901L45.127 55.4901M234.205 79.0143L153.046 79.0143M234.205 79.0143L315.363 79.0143M234.205 79.0143L251.672 100.513M153.046 79.0143L174.007 100.513M153.046 79.0143L71.8859 79.0143M282.455 138.399L210.945 138.399M282.455 138.399L296.085 155.175M282.455 138.399L353.963 138.399M282.455 138.399L267.698 120.238M210.945 138.399L227.302 155.175M210.945 138.399L193.239 120.238M210.945 138.399L139.436 138.399M296.085 155.175L227.302 155.175M296.085 155.175L364.868 155.175M296.085 155.175L308.715 170.719M227.302 155.175L242.458 170.719M227.302 155.175L158.519 155.175M331.382 198.617L269.658 198.617M331.382 198.617L341.591 211.181M331.382 198.617L393.106 198.617M331.382 198.617L320.449 185.162M269.658 198.617L281.908 211.181M269.658 198.617L256.54 185.162M269.658 198.617L207.935 198.617M341.591 211.181L281.908 211.181M341.591 211.181L401.273 211.181M341.591 211.181L351.146 222.941M281.908 211.181L293.375 222.941M281.908 211.181L222.227 211.181M368.53 244.338L314.236 244.338M368.53 244.338L376.461 254.098M368.53 244.338L422.824 244.338M368.53 244.338L360.107 233.971M314.236 244.338L323.753 254.098M314.236 244.338L304.129 233.971M314.236 244.338L259.942 244.338M376.461 254.098L323.753 254.098M376.461 254.098L429.169 254.098M376.461 254.098L383.941 263.305M323.753 254.098L332.729 263.305M323.753 254.098L271.045 254.098M397.696 280.235L349.236 280.235M397.696 280.235L404.034 288.035M397.696 280.235L446.157 280.235M397.696 280.235L391.009 272.003M349.236 280.235L356.841 288.035M349.236 280.235L341.21 272.003M349.236 280.235L300.775 280.235M404.034 288.035L356.841 288.035M404.034 288.035L451.228 288.035M404.034 288.035L410.049 295.438M356.841 288.035L364.059 295.438M356.841 288.035L309.648 288.035M421.203 309.166L377.444 309.166M421.203 309.166L426.384 315.543M421.203 309.166L464.963 309.166M421.203 309.166L415.765 302.473M377.444 309.166L383.661 315.543M377.444 309.166L370.918 302.473M377.444 309.166L333.685 309.166M426.384 315.543L383.661 315.543M426.384 315.543L469.107 315.543M426.384 315.543L431.326 321.624M383.661 315.543L389.591 321.624M383.661 315.543L340.938 315.543M440.553 332.981L440 332.301L439.444 331.617L436.044 327.431M440.553 332.981L400.664 332.981M440.553 332.981L444.867 338.29M440.553 332.981L480.442 332.981M400.664 332.981L405.84 338.29M400.664 332.981L395.252 327.431M400.664 332.981L360.774 332.981M444.867 338.29L405.84 338.29M444.867 338.29L483.893 338.29M444.867 338.29L448.998 343.375M405.84 338.29L410.798 343.375M405.84 338.29L366.814 338.29M456.758 352.925L420.109 352.925M456.758 352.925L460.406 357.415M456.758 352.925L493.406 352.925M456.758 352.925L452.959 348.249M420.109 352.925L422.866 355.753L424.487 357.415M420.109 352.925L415.55 348.249M420.109 352.925L383.461 352.925M460.406 357.415L424.487 357.415M460.406 357.415L496.325 357.415M460.406 357.415L463.48 361.2L463.911 361.73M424.487 357.415L428.694 361.73M424.487 357.415L388.568 357.415M470.527 369.873L436.633 369.873M470.527 369.873L471.32 370.848L473.652 373.719M470.527 369.873L504.422 369.873M470.527 369.873L469.728 368.889L468.105 366.892L467.283 365.879M436.633 369.873L440.383 373.719M436.633 369.873L435.19 368.393L434.217 367.394L432.74 365.879M436.633 369.873L402.738 369.873M473.652 373.719L440.383 373.719M473.652 373.719L506.922 373.719M473.652 373.719L475.922 376.512L476.665 377.426M440.383 373.719L441.754 375.125L442.658 376.052L443.998 377.426M440.383 373.719L407.113 373.719M482.372 384.451L450.846 384.451M482.372 384.451L484.075 386.547L485.079 387.783M482.372 384.451L513.898 384.451M482.372 384.451L479.569 381.001M450.846 384.451L453.294 386.96L453.695 387.373L454.095 387.783M450.846 384.451L449.179 382.741L447.483 381.001M450.846 384.451L419.321 384.451M485.079 387.783L454.095 387.783M485.079 387.783L486.398 389.406L487.049 390.207L487.373 390.605L487.695 391.002M485.079 387.783L516.063 387.783M454.095 387.783L423.111 387.783M454.095 387.783L457.234 391.002M20.9534 155.175L89.7363 155.175M20.9534 155.175L43.6864 170.719M20.9534 155.175L0.344459 155.175M20.9534 155.175L0.34446 141.083M84.4871 198.617L22.7637 198.617M84.4871 198.617L102.863 211.181M84.4871 198.617L146.211 198.617M84.4871 198.617L64.8097 185.162M22.7637 198.617L43.1807 211.181M22.7637 198.617L0.899496 185.162M22.7637 198.617L0.344455 198.617M102.863 211.181L43.1807 211.181M102.863 211.181L162.544 211.181M102.863 211.181L120.062 222.941M43.1807 211.181L62.2911 222.941M43.1807 211.181L0.344454 211.181M151.354 244.338L97.0604 244.338M151.354 244.338L165.629 254.098M151.354 244.338L205.649 244.338M151.354 244.338L136.193 233.971M97.0604 244.338L112.921 254.098M97.0604 244.338L80.2148 233.971M97.0604 244.338L42.7663 244.338M165.629 254.098L112.921 254.098M165.629 254.098L218.337 254.098M165.629 254.098L179.094 263.305M112.921 254.098L127.882 263.305M112.921 254.098L60.2136 254.098M203.854 280.235L155.393 280.235M203.854 280.235L215.261 288.035M203.854 280.235L252.314 280.235M203.854 280.235L191.815 272.003M155.393 280.235L168.069 288.035M155.393 280.235L142.017 272.003M155.393 280.235L106.932 280.235M215.261 288.035L168.069 288.035M215.261 288.035L262.455 288.035M215.261 288.035L226.088 295.438M168.069 288.035L180.098 295.438M168.069 288.035L120.876 288.035M246.166 309.166L202.407 309.166M246.166 309.166L255.492 315.543M246.166 309.166L289.925 309.166M246.166 309.166L236.377 302.473M202.407 309.166L212.769 315.543M202.407 309.166L191.529 302.473M202.407 309.166L158.648 309.166M255.492 315.543L212.769 315.543M255.492 315.543L298.215 315.543M255.492 315.543L264.386 321.624M212.769 315.543L222.651 321.624M212.769 315.543L170.046 315.543M280.995 332.981L241.106 332.981M280.995 332.981L288.761 338.29M280.995 332.981L320.884 332.981M280.995 332.981L272.878 327.431M241.106 332.981L249.734 338.29M241.106 332.981L232.087 327.431M241.106 332.981L201.216 332.981M288.761 338.29L249.734 338.29M288.761 338.29L327.787 338.29M288.761 338.29L296.197 343.375M249.734 338.29L257.997 343.375M249.734 338.29L210.707 338.29M310.164 352.925L273.516 352.925M310.164 352.925L316.731 357.415M310.164 352.925L346.813 352.925M310.164 352.925L303.325 348.249M273.516 352.925L280.811 357.415M273.516 352.925L265.917 348.249M273.516 352.925L236.867 352.925M316.731 357.415L280.811 357.415M316.731 357.415L352.649 357.415M316.731 357.415L323.041 361.73M280.811 357.415L287.823 361.73M280.811 357.415L244.893 357.415M334.95 369.873L301.055 369.873M334.95 369.873L340.575 373.719M334.95 369.873L368.844 369.873M334.95 369.873L333.51 368.889L332.785 368.393L329.109 365.879M301.055 369.873L307.305 373.719M301.055 369.873L294.565 365.879M301.055 369.873L267.161 369.873M340.575 373.719L307.305 373.719M340.575 373.719L373.844 373.719M340.575 373.719L345.996 377.426M307.305 373.719L313.329 377.426M307.305 373.719L274.036 373.719M356.27 384.451L324.744 384.451M356.27 384.451L361.143 387.783M356.27 384.451L387.796 384.451M356.27 384.451L351.224 381.001M324.744 384.451L328.823 386.96L329.492 387.373L330.159 387.783M324.744 384.451L319.138 381.001M324.744 384.451L293.219 384.451M361.143 387.783L330.159 387.783M361.143 387.783L365.271 390.605L365.851 391.002M361.143 387.783L392.127 387.783M330.159 387.783L299.174 387.783M330.159 387.783L335.389 391.002M10.0105 280.235L26.4891 288.035M10.0105 280.235L58.4712 280.235M10.0105 280.235L0.344448 275.659M10.0105 280.235L0.344447 280.235M26.4891 288.035L73.6823 288.035M26.4891 288.035L42.1273 295.438M26.4891 288.035L0.344447 288.035M71.129 309.166L27.3692 309.166M71.129 309.166L84.5998 315.543M71.129 309.166L114.888 309.166M71.129 309.166L56.9886 302.473M27.3692 309.166L41.8761 315.543M27.3692 309.166L12.1414 302.473M27.3692 309.166L0.344445 309.166M84.5998 315.543L41.8761 315.543M84.5998 315.543L127.323 315.543M84.5998 315.543L97.4469 321.624M41.8761 315.543L55.7119 321.624M41.8761 315.543L0.344444 315.543M121.437 332.981L81.5474 332.981M121.437 332.981L132.654 338.29M121.437 332.981L161.326 332.981M121.437 332.981L109.713 327.431M81.5474 332.981L93.6275 338.29M81.5474 332.981L68.9222 327.431M81.5474 332.981L41.6582 332.981M132.654 338.29L93.6275 338.29M132.654 338.29L171.681 338.29M132.654 338.29L143.396 343.375M93.6275 338.29L105.195 343.375M93.6275 338.29L54.6005 338.29M163.571 352.925L126.922 352.925M163.571 352.925L173.055 357.415M163.571 352.925L200.219 352.925M163.571 352.925L153.693 348.249M126.922 352.925L137.136 357.415M126.922 352.925L116.284 348.249M126.922 352.925L90.2733 352.925M173.055 357.415L137.136 357.415M173.055 357.415L208.974 357.415M173.055 357.415L182.17 361.73M137.136 357.415L146.952 361.73M137.136 357.415L101.217 357.415M199.371 369.873L165.477 369.873M199.371 369.873L207.496 373.719M199.371 369.873L233.266 369.873M199.371 369.873L190.935 365.879M165.477 369.873L174.227 373.719M165.477 369.873L156.392 365.879M165.477 369.873L131.582 369.873M207.496 373.719L174.227 373.719M207.496 373.719L240.766 373.719M207.496 373.719L215.327 377.426M174.227 373.719L182.66 377.426M174.227 373.719L140.957 373.719M230.168 384.451L198.642 384.451M230.168 384.451L237.206 387.783M230.168 384.451L261.694 384.451M230.168 384.451L222.88 381.001M198.642 384.451L206.222 387.783M198.642 384.451L190.793 381.001M198.642 384.451L167.117 384.451M237.206 387.783L206.222 387.783M237.206 387.783L244.007 391.002M237.206 387.783L268.19 387.783M206.222 387.783L175.238 387.783M206.222 387.783L213.546 391.002M16.9768 352.925L29.3802 357.415M16.9768 352.925L53.6251 352.925M16.9768 352.925L4.05908 348.249M16.9768 352.925L0.344441 352.925M29.3802 357.415L65.2988 357.415M29.3802 357.415L41.299 361.73M29.3802 357.415L0.34444 357.415M63.7936 369.873L29.8992 369.873M63.7936 369.873L74.4186 373.719M63.7936 369.873L97.688 369.873M63.7936 369.873L52.7615 365.879M29.8992 369.873L41.1491 373.719M29.8992 369.873L18.2181 365.879M29.8992 369.873L0.344439 369.873M74.4186 373.719L41.1491 373.719M74.4186 373.719L107.688 373.719M74.4186 373.719L84.6591 377.426M41.1491 373.719L51.9919 377.426M41.1491 373.719L7.87969 373.719M104.066 384.451L72.5403 384.451M104.066 384.451L113.27 387.783M104.066 384.451L135.592 384.451M104.066 384.451L94.5351 381.001M72.5403 384.451L82.2857 387.783M72.5403 384.451L62.449 381.001M72.5403 384.451L41.0145 384.451M113.27 387.783L82.2857 387.783M113.27 387.783L122.162 391.002M113.27 387.783L144.254 387.783M82.2857 387.783L51.301 387.783M82.2857 387.783L91.7012 391.002M62.449 381.001L51.9919 377.426M62.449 381.001L30.3623 381.001M62.449 381.001L94.5351 381.001M41.0145 384.451L51.301 387.783M41.0145 384.451L30.3623 381.001M41.0145 384.451L9.4895 384.451M51.301 387.783L20.317 387.783M51.301 387.783L61.2403 391.002M91.7012 391.002L122.162 391.002M91.7012 391.002L61.2403 391.002M91.7012 391.002L100.804 394.114M30.3623 381.001L19.3242 377.426M30.3623 381.001L0.344438 381.001M9.4895 384.451L20.317 387.783M9.4895 384.451L0.344438 381.637M9.4895 384.451L0.344438 384.451M20.317 387.783L30.7794 391.002M20.317 387.783L0.344438 387.783M61.2403 391.002L30.7794 391.002M61.2403 391.002L70.8491 394.114M30.7794 391.002L40.894 394.114M30.7794 391.002L0.344437 391.002M51.9919 377.426L19.3242 377.426M51.9919 377.426L84.6591 377.426M7.87969 373.719L19.3242 377.426M7.87969 373.719L0.344439 371.279M7.87969 373.719L0.344439 373.719M19.3242 377.426L0.344439 377.426M84.6591 377.426L117.326 377.426M84.6591 377.426L94.5351 381.001M94.5351 381.001L126.621 381.001M18.2181 365.879L6.08134 361.73M18.2181 365.879L52.7615 365.879M18.2181 365.879L0.34444 365.879M0.241142 369.873L0.344439 369.873M6.08134 361.73L41.299 361.73M6.08134 361.73L0.34444 359.769M6.08134 361.73L0.34444 361.73M41.299 361.73L76.5167 361.73M41.299 361.73L52.7615 365.879M52.7615 365.879L87.3049 365.879M190.793 381.001L182.66 377.426M190.793 381.001L158.707 381.001M190.793 381.001L222.88 381.001M167.117 384.451L175.238 387.783M167.117 384.451L158.707 381.001M167.117 384.451L135.592 384.451M175.238 387.783L144.254 387.783M175.238 387.783L183.085 391.002M213.546 391.002L183.085 391.002M213.546 391.002L220.626 394.114M213.546 391.002L244.007 391.002M158.707 381.001L149.993 377.426M158.707 381.001L126.621 381.001M135.592 384.451L144.254 387.783M135.592 384.451L126.621 381.001M144.254 387.783L152.623 391.002M183.085 391.002L152.623 391.002M183.085 391.002L190.671 394.114M126.621 381.001L117.326 377.426M122.162 391.002L152.623 391.002M122.162 391.002L130.76 394.114M152.623 391.002L160.715 394.114M182.66 377.426L149.993 377.426M182.66 377.426L215.327 377.426M140.957 373.719L149.993 377.426M140.957 373.719L131.582 369.873M140.957 373.719L107.688 373.719M149.993 377.426L117.326 377.426M215.327 377.426L247.994 377.426M215.327 377.426L222.88 381.001M117.326 377.426L107.688 373.719M222.88 381.001L254.966 381.001M131.582 369.873L121.848 365.879M131.582 369.873L97.688 369.873M107.688 373.719L97.688 369.873M97.688 369.873L87.3049 365.879M156.392 365.879L146.952 361.73M156.392 365.879L121.848 365.879M156.392 365.879L190.935 365.879M121.848 365.879L111.734 361.73M121.848 365.879L87.3049 365.879M87.3049 365.879L76.5167 361.73M146.952 361.73L111.734 361.73M146.952 361.73L182.17 361.73M101.217 357.415L111.734 361.73M101.217 357.415L90.2733 352.925M101.217 357.415L65.2988 357.415M111.734 361.73L76.5167 361.73M182.17 361.73L217.388 361.73M182.17 361.73L190.935 365.879M76.5167 361.73L65.2988 357.415M190.935 365.879L225.479 365.879M90.2733 352.925L78.8755 348.249M90.2733 352.925L53.6251 352.925M65.2988 357.415L53.6251 352.925M53.6251 352.925L41.4676 348.249M116.284 348.249L105.195 343.375M116.284 348.249L78.8755 348.249M116.284 348.249L153.693 348.249M78.8755 348.249L66.9952 343.375M78.8755 348.249L41.4676 348.249M41.4676 348.249L28.7951 343.375M41.4676 348.249L4.05908 348.249M4.05908 348.249L0.344441 348.249M4.05908 348.249L0.344441 346.905M105.195 343.375L66.9952 343.375M105.195 343.375L143.396 343.375M54.6005 338.29L66.9952 343.375M54.6005 338.29L41.6582 332.981M54.6005 338.29L15.5743 338.29M66.9952 343.375L28.7951 343.375M143.396 343.375L181.596 343.375M143.396 343.375L153.693 348.249M28.7951 343.375L15.5743 338.29M28.7951 343.375L0.344442 343.375M153.693 348.249L191.1 348.249M41.6582 332.981L28.1308 327.431M41.6582 332.981L1.76897 332.981M15.5743 338.29L1.76897 332.981M15.5743 338.29L0.344442 338.29M0.144517 343.375L0.344442 343.375M1.76897 332.981L0.344443 332.433M1.76897 332.981L0.344443 332.981M68.9222 327.431L55.7119 321.624M68.9222 327.431L28.1308 327.431M68.9222 327.431L109.713 327.431M28.1308 327.431L13.9771 321.624M28.1308 327.431L0.344443 327.431M-1.70505e-05 332.301L0.344443 332.433M55.7119 321.624L13.9771 321.624M55.7119 321.624L97.4469 321.624M13.9771 321.624L0.344444 321.624M13.9771 321.624L0.344444 316.032M97.4469 321.624L139.182 321.624M97.4469 321.624L109.713 327.431M109.713 327.431L150.504 327.431M12.1414 302.473L56.9886 302.473M12.1414 302.473L0.344446 297.287M12.1414 302.473L0.344445 302.473M0.0199125 309.166L0.344445 309.166M56.9886 302.473L101.836 302.473M56.9886 302.473L42.1273 295.438M0.214552 297.23L0.344446 297.287M319.138 381.001L313.329 377.426M319.138 381.001L287.052 381.001M319.138 381.001L351.224 381.001M293.219 384.451L299.174 387.783M293.219 384.451L287.052 381.001M293.219 384.451L261.694 384.451M299.174 387.783L268.19 387.783M299.174 387.783L304.928 391.002M335.389 391.002L304.928 391.002M335.389 391.002L337.306 392.181L340.447 394.114M335.389 391.002L365.851 391.002M287.052 381.001L280.662 377.426M287.052 381.001L254.966 381.001M261.694 384.451L268.19 387.783M261.694 384.451L254.966 381.001M268.19 387.783L274.467 391.002M304.928 391.002L274.467 391.002M304.928 391.002L310.491 394.114M254.966 381.001L247.994 377.426M244.007 391.002L250.581 394.114M244.007 391.002L274.467 391.002M274.467 391.002L275.237 391.397L276.768 392.181L280.536 394.114M313.329 377.426L280.662 377.426M313.329 377.426L345.996 377.426M274.036 373.719L280.662 377.426M274.036 373.719L267.161 369.873M274.036 373.719L240.766 373.719M280.662 377.426L247.994 377.426M345.996 377.426L378.663 377.426M345.996 377.426L351.224 381.001M247.994 377.426L240.766 373.719M351.224 381.001L383.311 381.001M267.161 369.873L260.022 365.879M267.161 369.873L233.266 369.873M240.766 373.719L239.843 373.246L233.266 369.873M233.266 369.873L225.479 365.879M294.565 365.879L293.737 365.369L287.823 361.73M294.565 365.879L260.022 365.879M294.565 365.879L329.109 365.879M260.022 365.879L252.605 361.73M260.022 365.879L225.479 365.879M225.479 365.879L217.388 361.73M287.823 361.73L252.605 361.73M287.823 361.73L323.041 361.73M244.893 357.415L252.605 361.73M244.893 357.415L236.867 352.925M244.893 357.415L208.974 357.415M252.605 361.73L217.388 361.73M323.041 361.73L358.258 361.73M323.041 361.73L329.109 365.879M217.388 361.73L208.974 357.415M329.109 365.879L363.652 365.879M236.867 352.925L228.509 348.249M236.867 352.925L200.219 352.925M208.974 357.415L200.219 352.925M200.219 352.925L191.1 348.249M265.917 348.249L257.997 343.375M265.917 348.249L228.509 348.249M265.917 348.249L303.325 348.249M228.509 348.249L219.796 343.375M228.509 348.249L191.1 348.249M191.1 348.249L181.596 343.375M257.997 343.375L219.796 343.375M257.997 343.375L296.197 343.375M210.707 338.29L219.796 343.375M210.707 338.29L201.216 332.981M210.707 338.29L171.681 338.29M219.796 343.375L181.596 343.375M296.197 343.375L334.397 343.375M296.197 343.375L303.325 348.249M181.596 343.375L171.681 338.29M303.325 348.249L340.734 348.249M201.216 332.981L191.296 327.431M201.216 332.981L161.326 332.981M171.681 338.29L161.326 332.981M161.326 332.981L150.504 327.431M232.087 327.431L222.651 321.624M232.087 327.431L191.296 327.431M232.087 327.431L272.878 327.431M191.296 327.431L180.917 321.624M191.296 327.431L150.504 327.431M150.504 327.431L139.182 321.624M222.651 321.624L180.917 321.624M222.651 321.624L264.386 321.624M170.046 315.543L180.917 321.624M170.046 315.543L158.648 309.166M170.046 315.543L127.323 315.543M180.917 321.624L139.182 321.624M264.386 321.624L306.121 321.624M264.386 321.624L272.878 327.431M139.182 321.624L127.323 315.543M272.878 327.431L313.67 327.431M158.648 309.166L146.683 302.473M158.648 309.166L114.888 309.166M127.323 315.543L114.888 309.166M114.888 309.166L101.836 302.473M191.529 302.473L180.098 295.438M191.529 302.473L146.683 302.473M191.529 302.473L236.377 302.473M146.683 302.473L134.108 295.438M146.683 302.473L101.836 302.473M101.836 302.473L88.1178 295.438M180.098 295.438L134.108 295.438M180.098 295.438L226.088 295.438M120.876 288.035L134.108 295.438M120.876 288.035L106.932 280.235M120.876 288.035L73.6823 288.035M134.108 295.438L88.1178 295.438M226.088 295.438L272.079 295.438M226.088 295.438L236.377 302.473M88.1178 295.438L73.6823 288.035M88.1178 295.438L42.1273 295.438M236.377 302.473L281.224 302.473M106.932 280.235L92.219 272.003M106.932 280.235L58.4712 280.235M73.6823 288.035L58.4712 280.235M42.1273 295.438L0.344446 295.438M58.4712 280.235L42.4204 272.003M142.017 272.003L127.882 263.305M142.017 272.003L92.219 272.003M142.017 272.003L191.815 272.003M92.219 272.003L76.6707 263.305M92.219 272.003L42.4204 272.003M42.4204 272.003L25.4589 263.305M42.4204 272.003L0.344448 272.003M127.882 263.305L76.6707 263.305M127.882 263.305L179.094 263.305M60.2136 254.098L76.6707 263.305M60.2136 254.098L42.7663 244.338M60.2136 254.098L7.50596 254.098M76.6707 263.305L25.4589 263.305M179.094 263.305L230.306 263.305M179.094 263.305L191.815 272.003M25.4589 263.305L7.50596 254.098M25.4589 263.305L0.344449 263.305M191.815 272.003L241.614 272.003M42.7663 244.338L24.2363 233.971M42.7663 244.338L0.344451 244.338M7.50596 254.098L0.34445 254.098M7.50596 254.098L0.34445 250.426M80.2148 233.971L62.2911 222.941M80.2148 233.971L24.2363 233.971M80.2148 233.971L136.193 233.971M24.2363 233.971L4.52018 222.941M24.2363 233.971L0.344452 233.971M62.2911 222.941L4.52018 222.941M62.2911 222.941L120.062 222.941M4.52018 222.941L0.344453 220.605M4.52018 222.941L0.344453 222.941M120.062 222.941L177.833 222.941M120.062 222.941L136.193 233.971M136.193 233.971L192.172 233.971M0.899496 185.162L64.8097 185.162M0.899496 185.162L0.344456 185.162M0.899496 185.162L0.344456 184.821M64.8097 185.162L128.719 185.162M64.8097 185.162L43.6864 170.719M447.483 381.001L446.19 379.675L445.756 379.229L443.998 377.426M447.483 381.001L415.397 381.001M447.483 381.001L479.569 381.001M419.321 384.451L422.176 386.96L423.111 387.783M419.321 384.451L415.895 381.439L415.397 381.001M419.321 384.451L387.796 384.451M423.111 387.783L392.127 387.783M423.111 387.783L426.773 391.002M457.234 391.002L426.773 391.002M457.234 391.002L458.384 392.181L460.268 394.114M457.234 391.002L487.695 391.002M415.397 381.001L414.393 380.119L411.33 377.426M415.397 381.001L383.311 381.001M387.796 384.451L392.127 387.783M387.796 384.451L383.311 381.001M392.127 387.783L395.279 390.207L396.312 391.002M426.773 391.002L396.312 391.002M426.773 391.002L430.313 394.114M383.311 381.001L378.663 377.426M365.851 391.002L366.428 391.397L370.402 394.114M365.851 391.002L396.312 391.002M396.312 391.002L397.845 392.181L400.358 394.114M443.998 377.426L411.33 377.426M443.998 377.426L476.665 377.426M407.113 373.719L411.33 377.426M407.113 373.719L402.738 369.873M407.113 373.719L373.844 373.719M411.33 377.426L378.663 377.426M476.665 377.426L509.332 377.426M476.665 377.426L479.569 381.001M378.663 377.426L373.844 373.719M479.569 381.001L511.655 381.001M402.738 369.873L399.92 367.394L399.348 366.892L398.196 365.879M402.738 369.873L368.844 369.873M373.844 373.719L368.844 369.873M368.844 369.873L363.652 365.879M432.74 365.879L428.694 361.73M432.74 365.879L398.196 365.879M432.74 365.879L467.283 365.879M398.196 365.879L393.476 361.73M398.196 365.879L363.652 365.879M363.652 365.879L358.258 361.73M428.694 361.73L393.476 361.73M428.694 361.73L463.911 361.73M388.568 357.415L391.658 360.132L392.267 360.667L393.476 361.73M388.568 357.415L383.461 352.925M388.568 357.415L352.649 357.415M393.476 361.73L358.258 361.73M463.911 361.73L499.129 361.73M463.911 361.73L467.283 365.879M358.258 361.73L352.649 357.415M467.283 365.879L501.826 365.879M383.461 352.925L378.142 348.249M383.461 352.925L346.813 352.925M352.649 357.415L346.813 352.925M346.813 352.925L340.734 348.249M415.55 348.249L413.199 345.838L412.604 345.227L410.798 343.375M415.55 348.249L378.142 348.249M415.55 348.249L452.959 348.249M378.142 348.249L372.598 343.375M378.142 348.249L340.734 348.249M340.734 348.249L334.397 343.375M410.798 343.375L372.598 343.375M410.798 343.375L448.998 343.375M366.814 338.29L372.598 343.375M366.814 338.29L360.774 332.981M366.814 338.29L327.787 338.29M372.598 343.375L334.397 343.375M448.998 343.375L487.199 343.375M448.998 343.375L450.004 344.613L452.959 348.249M334.397 343.375L327.787 338.29M452.959 348.249L490.367 348.249M360.774 332.981L354.461 327.431M360.774 332.981L320.884 332.981M327.787 338.29L320.884 332.981M320.884 332.981L313.67 327.431M395.252 327.431L389.591 321.624M395.252 327.431L354.461 327.431M395.252 327.431L436.044 327.431M354.461 327.431L347.856 321.624M354.461 327.431L313.67 327.431M313.67 327.431L306.121 321.624M389.591 321.624L347.856 321.624M389.591 321.624L431.326 321.624M340.938 315.543L347.856 321.624M340.938 315.543L333.685 309.166M340.938 315.543L298.215 315.543M347.856 321.624L306.121 321.624M431.326 321.624L473.061 321.624M431.326 321.624L436.044 327.431M306.121 321.624L298.215 315.543M436.044 327.431L476.835 327.431M333.685 309.166L326.071 302.473M333.685 309.166L289.925 309.166M298.215 315.543L289.925 309.166M289.925 309.166L281.224 302.473M370.918 302.473L364.059 295.438M370.918 302.473L326.071 302.473M370.918 302.473L415.765 302.473M326.071 302.473L318.069 295.438M326.071 302.473L281.224 302.473M281.224 302.473L272.079 295.438M364.059 295.438L318.069 295.438M364.059 295.438L410.049 295.438M309.648 288.035L318.069 295.438M309.648 288.035L300.775 280.235M309.648 288.035L262.455 288.035M318.069 295.438L272.079 295.438M410.049 295.438L456.039 295.438M410.049 295.438L415.765 302.473M272.079 295.438L262.455 288.035M415.765 302.473L460.612 302.473M300.775 280.235L291.412 272.003M300.775 280.235L252.314 280.235M262.455 288.035L252.314 280.235M252.314 280.235L241.614 272.003M341.21 272.003L332.729 263.305M341.21 272.003L291.412 272.003M341.21 272.003L391.009 272.003M291.412 272.003L281.518 263.305M291.412 272.003L241.614 272.003M241.614 272.003L230.306 263.305M332.729 263.305L281.518 263.305M332.729 263.305L383.941 263.305M271.045 254.098L281.518 263.305M271.045 254.098L259.942 244.338M271.045 254.098L218.337 254.098M281.518 263.305L230.306 263.305M383.941 263.305L435.153 263.305M383.941 263.305L391.009 272.003M230.306 263.305L218.337 254.098M391.009 272.003L440.807 272.003M259.942 244.338L248.15 233.971M259.942 244.338L205.649 244.338M218.337 254.098L205.649 244.338M205.649 244.338L192.172 233.971M304.129 233.971L293.375 222.941M304.129 233.971L248.15 233.971M304.129 233.971L360.107 233.971M248.15 233.971L235.604 222.941M248.15 233.971L192.172 233.971M192.172 233.971L177.833 222.941M293.375 222.941L235.604 222.941M293.375 222.941L351.146 222.941M222.227 211.181L235.604 222.941M222.227 211.181L207.935 198.617M222.227 211.181L162.544 211.181M235.604 222.941L177.833 222.941M351.146 222.941L408.916 222.941M351.146 222.941L360.107 233.971M177.833 222.941L162.544 211.181M360.107 233.971L416.086 233.971M207.935 198.617L192.63 185.162M207.935 198.617L146.211 198.617M162.544 211.181L146.211 198.617M146.211 198.617L128.719 185.162M256.54 185.162L242.458 170.719M256.54 185.162L192.63 185.162M256.54 185.162L320.449 185.162M192.63 185.162L176.201 170.719M192.63 185.162L128.719 185.162M128.719 185.162L109.943 170.719M242.458 170.719L176.201 170.719M242.458 170.719L308.715 170.719M158.519 155.175L176.201 170.719M158.519 155.175L139.436 138.399M158.519 155.175L89.7363 155.175M176.201 170.719L109.943 170.719M308.715 170.719L374.972 170.719M308.715 170.719L320.449 185.162M109.943 170.719L89.7363 155.175M109.943 170.719L43.6864 170.719M320.449 185.162L384.36 185.162M139.436 138.399L118.778 120.238M139.436 138.399L67.9274 138.399M89.7363 155.175L67.9274 138.399M43.6864 170.719L0.344457 170.719M67.9274 138.399L44.3174 120.238M67.9274 138.399L0.34446 138.399M193.239 120.238L174.007 100.513M193.239 120.238L118.778 120.238M193.239 120.238L267.698 120.238M118.778 120.238L96.3414 100.513M118.778 120.238L44.3174 120.238M44.3174 120.238L18.6759 100.513M44.3174 120.238L0.344462 120.238M174.007 100.513L96.3414 100.513M174.007 100.513L251.672 100.513M71.8859 79.0143L96.3414 100.513M71.8859 79.0143L45.127 55.4901M71.8859 79.0143L0.344466 79.0142M96.3414 100.513L18.6759 100.513M251.672 100.513L329.338 100.513M251.672 100.513L267.698 120.238M18.6759 100.513L0.344464 100.513M18.6759 100.513L0.344465 86.4119M267.698 120.238L342.159 120.238M45.127 55.4901L15.7228 29.64M45.127 55.4901L0.344468 55.4901M104.906 29.64L77.0805 1.10135M104.906 29.64L15.7228 29.64M104.906 29.64L194.087 29.64M15.7228 29.64L0.344471 16.1202M15.7228 29.64L0.34447 29.64M77.0805 1.10135L170.901 1.10136M77.0805 1.10135L0.344473 1.10187M170.901 1.10136L264.72 1.10136M170.901 1.10136L194.087 29.64M194.087 29.64L283.27 29.64M575.828 381.001L575.685 380.561L575.541 380.119L575.397 379.675L575.252 379.229L574.813 377.88L574.666 377.426M575.828 381.001L543.741 381.001M575.828 381.001L607.914 381.001M545.424 384.451L546.647 386.96L547.047 387.783M545.424 384.451L544.379 382.309L543.741 381.001M545.424 384.451L513.898 384.451M547.047 387.783L516.063 387.783M547.047 387.783L548.229 390.207L548.617 391.002M579.078 391.002L579.206 391.397L579.714 392.959L580.09 394.114M579.078 391.002L548.617 391.002M579.078 391.002L609.539 391.002M543.741 381.001L543.527 380.561L543.311 380.119L543.095 379.675L542.878 379.229L541.999 377.426M543.741 381.001L511.655 381.001M513.898 384.451L515.529 386.96L516.063 387.783M513.898 384.451L511.655 381.001M516.063 387.783L517.119 389.406L517.898 390.605L518.156 391.002M548.617 391.002L548.809 391.397L549.192 392.181L549.571 392.959L549.759 393.346L550.134 394.114M548.617 391.002L518.156 391.002M511.655 381.001L509.92 378.332L509.332 377.426M487.695 391.002L489.599 393.346L490.223 394.114M487.695 391.002L518.156 391.002M518.156 391.002L519.929 393.731L520.179 394.114M574.666 377.426L541.999 377.426M574.666 377.426L607.333 377.426M540.192 373.719L541.999 377.426M540.192 373.719L538.317 369.873M540.192 373.719L506.922 373.719M541.999 377.426L509.332 377.426M607.333 377.426L640 377.426M607.333 377.426L607.914 381.001M509.332 377.426L506.922 373.719M607.914 381.001L640 381.001M538.317 369.873L537.836 368.889L537.108 367.394L536.37 365.879M538.317 369.873L504.422 369.873M506.922 373.719L506.614 373.246L504.422 369.873M504.422 369.873L504.103 369.382L503.782 368.889L503.46 368.393L501.826 365.879M570.913 365.879L569.565 361.73M570.913 365.879L536.37 365.879M570.913 365.879L605.457 365.879M536.37 365.879L534.347 361.73M536.37 365.879L501.826 365.879M501.826 365.879L499.814 362.783L499.472 362.257L499.129 361.73M569.565 361.73L534.347 361.73M569.565 361.73L604.782 361.73M532.243 357.415L531.975 356.864L531.704 356.31L531.433 355.753L530.055 352.925M532.243 357.415L533.305 359.594L533.568 360.132L533.828 360.667L534.347 361.73M532.243 357.415L496.325 357.415M534.347 361.73L499.129 361.73M604.782 361.73L640 361.73M604.782 361.73L605.457 365.879M499.129 361.73L496.325 357.415M605.457 365.879L640 365.879M530.055 352.925L528.065 348.845L527.775 348.249M530.055 352.925L493.406 352.925M496.325 357.415L495.606 356.31L493.406 352.925M493.406 352.925L492.281 351.195L490.367 348.249M565.184 348.25L564.399 345.838L564.201 345.227L563.599 343.375M565.184 348.25L527.775 348.249M565.184 348.25L602.591 348.25M527.775 348.249L525.399 343.375M527.775 348.249L490.367 348.249M490.367 348.249L487.199 343.375M563.599 343.375L525.399 343.375M563.599 343.375L601.8 343.375M522.92 338.29L525.399 343.375M522.92 338.29L520.332 332.981M522.92 338.29L483.893 338.29M525.399 343.375L487.199 343.375M601.8 343.375L640 343.375M601.8 343.375L602.001 344.613L602.397 347.05L602.591 348.25M487.199 343.375L483.893 338.29M602.591 348.25L640 348.25M520.332 332.981L518.314 328.842L517.626 327.431M520.332 332.981L480.442 332.981M483.893 338.29L480.442 332.981M480.442 332.981L478.659 330.237L476.835 327.431M558.417 327.431L556.53 321.624M558.417 327.431L517.626 327.431M558.417 327.431L599.209 327.431M517.626 327.431L514.795 321.624M517.626 327.431L476.835 327.431M476.835 327.431L473.061 321.624M556.53 321.624L514.795 321.624M556.53 321.624L598.265 321.624M511.83 315.543L512.585 317.09L514.795 321.624M511.83 315.543L508.722 309.166M511.83 315.543L469.107 315.543M514.795 321.624L473.061 321.624M598.265 321.624L640 321.624M598.265 321.624L599.209 327.431M473.061 321.624L469.107 315.543M599.209 327.431L640 327.431M508.722 309.166L505.459 302.473M508.722 309.166L464.963 309.166M469.107 315.543L464.963 309.166M464.963 309.166L460.612 302.473M550.306 302.473L548.019 295.438M550.306 302.473L505.459 302.473M550.306 302.473L595.153 302.473M505.459 302.473L502.03 295.438M505.459 302.473L460.612 302.473M460.612 302.473L456.039 295.438M548.019 295.438L502.03 295.438M548.019 295.438L594.01 295.438M498.42 288.035L502.03 295.438M498.42 288.035L494.618 280.235M498.42 288.035L451.228 288.035M502.03 295.438L456.039 295.438M594.01 295.438L640 295.438M594.01 295.438L595.014 301.612L595.153 302.473M456.039 295.438L451.228 288.035M595.153 302.473L640 302.473M494.618 280.235L490.605 272.003M494.618 280.235L446.157 280.235M451.228 288.035L447.45 282.224L446.157 280.235M446.157 280.235L440.807 272.003M540.404 272.003L537.576 263.305M540.404 272.003L490.605 272.003M540.404 272.003L590.201 272.003M490.605 272.003L486.365 263.305M490.605 272.003L440.807 272.003M440.807 272.003L435.153 263.305M537.576 263.305L486.365 263.305M537.576 263.305L588.788 263.305M481.876 254.098L486.365 263.305M481.876 254.098L477.118 244.338M481.876 254.098L429.169 254.098M486.365 263.305L435.153 263.305M588.788 263.305L640 263.305M588.788 263.305L590.201 272.003M435.153 263.305L429.169 254.098M590.201 272.003L640 272.003M477.118 244.338L472.064 233.971M477.118 244.338L422.824 244.338M429.169 254.098L422.824 244.338M422.824 244.338L416.086 233.971M528.043 233.971L524.458 222.941M528.043 233.971L472.064 233.971M528.043 233.971L584.022 233.971M472.064 233.971L466.687 222.941M472.064 233.971L416.086 233.971M416.086 233.971L408.916 222.941M524.458 222.941L466.687 222.941M524.458 222.941L582.229 222.941M460.954 211.181L466.687 222.941M460.954 211.181L454.829 198.617M460.954 211.181L401.273 211.181M466.687 222.941L408.916 222.941M582.229 222.941L640 222.941M582.229 222.941L584.022 233.971M408.916 222.941L401.273 211.181M584.022 233.971L640 233.971M454.829 198.617L448.27 185.162M454.829 198.617L393.106 198.617M401.273 211.181L393.106 198.617M393.106 198.617L384.36 185.162M512.18 185.162L507.486 170.719M512.18 185.162L448.27 185.162M512.18 185.162L576.09 185.162M448.27 185.162L441.229 170.719M448.27 185.162L384.36 185.162M384.36 185.162L374.972 170.719M507.486 170.719L441.229 170.719M507.486 170.719L573.743 170.719M433.651 155.175L441.229 170.719M433.651 155.175L425.473 138.399M433.651 155.175L364.868 155.175M441.229 170.719L374.972 170.719M573.743 170.719L640 170.719M573.743 170.719L576.09 185.162M374.972 170.719L364.868 155.175M576.09 185.162L640 185.162M425.473 138.399L416.619 120.238M425.473 138.399L353.963 138.399M364.868 155.175L353.963 138.399M353.963 138.399L342.159 120.238M491.08 120.238L484.669 100.513M491.08 120.238L416.619 120.238M491.08 120.238L565.539 120.238M416.619 120.238L407.003 100.513M416.619 120.238L342.159 120.238M342.159 120.238L329.338 100.513M484.669 100.513L407.003 100.513M484.669 100.513L562.334 100.513M396.522 79.0143L407.003 100.513M396.522 79.0143L385.055 55.4901M396.522 79.0143L315.363 79.0143M407.003 100.513L329.338 100.513M562.334 100.513L640 100.513M562.334 100.513L565.539 120.238M329.338 100.513L315.363 79.0143M565.539 120.238L640 120.238M385.055 55.4901L372.453 29.64M385.055 55.4901L300.072 55.4901M315.363 79.0143L300.072 55.4901M300.072 55.4901L283.27 29.64M461.635 29.64L452.36 1.10138M461.635 29.64L372.453 29.64M461.635 29.64L550.817 29.64M372.453 29.64L358.54 1.10137M372.453 29.64L283.27 29.64M283.27 29.64L264.72 1.10136M358.54 1.10137L452.36 1.10138M358.54 1.10137L264.72 1.10136M452.36 1.10138L546.18 1.10139M546.18 1.10139L640 1.1014M546.18 1.10139L550.817 29.64M550.817 29.64L640 29.64M704.172 381.001L704.315 380.561L704.459 380.119L704.603 379.675L704.748 379.229L705.04 378.332L705.187 377.88L705.334 377.426M704.172 381.001L672.086 381.001M704.172 381.001L736.259 381.001M671.526 384.451L670.984 387.783M671.526 384.451L672.086 381.001M671.526 384.451L640 384.451M670.984 387.783L670.918 388.191L670.851 388.598L670.786 389.003L670.461 391.002M670.984 387.783L640 387.783M700.922 391.002L700.794 391.397L700.286 392.959L699.91 394.114M700.922 391.002L670.461 391.002M700.922 391.002L731.383 391.002M672.086 381.001L672.158 380.561L672.229 380.119L672.302 379.675L672.667 377.426M672.086 381.001L640 381.001M640 384.451L640 387.783M640 384.451L640 381.001M640 387.783L640 391.002M670.461 391.002L640 391.002M670.461 391.002L670.27 392.181L670.206 392.571L669.955 394.114M640 381.001L640 377.426M609.539 391.002L609.73 392.181L609.794 392.571L609.857 392.959L609.92 393.346L609.982 393.731L610.045 394.114M609.539 391.002L640 391.002M640 391.002L640 394.114M705.334 377.426L672.667 377.426M705.334 377.426L738.001 377.426M673.269 373.719L673.347 373.246L673.423 372.771L673.894 369.873M673.269 373.719L672.667 377.426M673.269 373.719L640 373.719M672.667 377.426L640 377.426M738.001 377.426L770.668 377.426M738.001 377.426L737.56 378.332L737.34 378.781L737.122 379.229L736.904 379.675L736.689 380.119L736.473 380.561L736.259 381.001M640 377.426L640 373.719M736.259 381.001L768.345 381.001M673.894 369.873L674.543 365.879M673.894 369.873L640 369.873M640 373.719L640 369.873M640 369.873L640 365.879M709.087 365.879L710.435 361.73M709.087 365.879L674.543 365.879M709.087 365.879L743.63 365.879M674.543 365.879L675.218 361.73M674.543 365.879L640 365.879M640 365.879L640 361.73M710.435 361.73L675.218 361.73M710.435 361.73L745.653 361.73M675.919 357.415L675.218 361.73M675.919 357.415L676.648 352.925M675.919 357.415L640 357.415M675.218 361.73L640 361.73M745.653 361.73L780.871 361.73M745.653 361.73L743.63 365.879M640 361.73L640 357.415M743.63 365.879L778.174 365.879M676.648 352.925L676.929 351.195L677.215 349.437L677.408 348.25M676.648 352.925L640 352.925M640 357.415L640 352.925M640 352.925L640 348.25M714.816 348.25L715.601 345.838L715.798 345.227L716.401 343.375M714.816 348.25L677.408 348.25M714.816 348.25L752.225 348.25M677.408 348.25L677.603 347.05L677.999 344.613L678.2 343.375M677.408 348.25L640 348.25M640 348.25L640 343.375M716.401 343.375L678.2 343.375M716.401 343.375L754.601 343.375M679.026 338.29L678.922 338.938L678.2 343.375M679.026 338.29L679.889 332.981M679.026 338.29L640 338.29M678.2 343.375L640 343.375M754.601 343.375L792.801 343.375M754.601 343.375L752.225 348.25M640 343.375L640 338.29M752.225 348.25L789.633 348.25M679.889 332.981L680.791 327.431M679.889 332.981L640 332.981M640 338.29L640 332.981M640 332.981L640 327.431M721.583 327.431L723.47 321.624M721.583 327.431L680.791 327.431M721.583 327.431L762.374 327.431M680.791 327.431L681.735 321.624M680.791 327.431L640 327.431M640 327.431L640 321.624M723.47 321.624L681.735 321.624M723.47 321.624L765.205 321.624M682.723 315.543L681.735 321.624M682.723 315.543L683.759 309.166M682.723 315.543L640 315.543M681.735 321.624L640 321.624M765.205 321.624L806.939 321.624M765.205 321.624L762.374 327.431M640 321.624L640 315.543M762.374 327.431L803.165 327.431M683.759 309.166L684.847 302.473M683.759 309.166L640 309.166M640 315.543L640 309.166M640 309.166L640 302.473M729.694 302.473L731.98 295.438M729.694 302.473L684.847 302.473M729.694 302.473L774.541 302.473M684.847 302.473L685.99 295.438M684.847 302.473L640 302.473M640 302.473L640 295.438M731.98 295.438L685.99 295.438M731.98 295.438L777.97 295.438M687.193 288.035L685.99 295.438M687.193 288.035L688.461 280.235M687.193 288.035L640 288.035M685.99 295.438L640 295.438M777.97 295.438L823.961 295.438M777.97 295.438L774.541 302.473M640 295.438L640 288.035M774.541 302.473L819.388 302.473M688.461 280.235L689.798 272.003M688.461 280.235L640 280.235M640 288.035L640 280.235M640 280.235L640 272.003M739.596 272.003L742.423 263.305M739.596 272.003L689.798 272.003M739.596 272.003L789.395 272.003M689.798 272.003L691.212 263.305M689.798 272.003L640 272.003M640 272.003L640 263.305M742.423 263.305L691.212 263.305M742.423 263.305L793.635 263.305M692.708 254.098L691.212 263.305M692.708 254.098L694.294 244.338M692.708 254.098L640 254.098M691.212 263.305L640 263.305M793.635 263.305L844.847 263.305M793.635 263.305L789.395 272.003M640 263.305L640 254.098M789.395 272.003L839.193 272.003M694.294 244.338L695.978 233.971M694.294 244.338L640 244.338M640 254.098L640 244.338M640 244.338L640 233.971M751.957 233.971L755.542 222.941M751.957 233.971L695.978 233.971M751.957 233.971L807.936 233.971M695.978 233.971L697.771 222.941M695.978 233.971L640 233.971M640 233.971L640 222.941M755.542 222.941L697.771 222.941M755.542 222.941L813.313 222.941M699.682 211.181L697.771 222.941M699.682 211.181L701.723 198.617M699.682 211.181L640 211.181M697.771 222.941L640 222.941M813.313 222.941L871.084 222.941M813.313 222.941L807.936 233.971M640 222.941L640 211.181M807.936 233.971L863.914 233.971M701.723 198.617L703.91 185.162M701.723 198.617L640 198.617M640 211.181L640 198.617M640 198.617L640 185.162M767.82 185.162L772.514 170.719M767.82 185.162L703.91 185.162M767.82 185.162L831.73 185.162M703.91 185.162L706.257 170.719M703.91 185.162L640 185.162M640 185.162L640 170.719M772.514 170.719L706.257 170.719M772.514 170.719L838.771 170.719M708.783 155.175L706.257 170.719M708.783 155.175L711.509 138.399M708.783 155.175L640 155.175M706.257 170.719L640 170.719M838.771 170.719L905.028 170.719M838.771 170.719L831.73 185.162M640 170.719L640 155.175M831.73 185.162L895.64 185.162M711.509 138.399L714.461 120.238M711.509 138.399L640 138.399M640 155.175L640 138.399M640 138.399L640 120.238M788.92 120.238L795.331 100.513M788.92 120.238L714.461 120.238M788.92 120.238L863.381 120.238M714.461 120.238L717.665 100.513M714.461 120.238L640 120.238M640 120.238L640 100.513M795.331 100.513L717.665 100.513M795.331 100.513L872.996 100.513M721.159 79.0143L717.665 100.513M721.159 79.0143L724.982 55.4902M721.159 79.0143L640 79.0143M717.665 100.513L640 100.513M872.996 100.513L950.662 100.513M872.996 100.513L863.381 120.238M640 100.513L640 79.0143M863.381 120.238L937.841 120.238M724.982 55.4902L729.183 29.64M724.982 55.4902L640 55.4902M640 79.0143L640 55.4902M640 55.4902L640 29.64M818.365 29.6401L827.64 1.10141M818.365 29.6401L729.183 29.64M818.365 29.6401L907.547 29.6401M729.183 29.64L733.82 1.1014M729.183 29.64L640 29.64M640 29.64L640 1.1014M733.82 1.1014L827.64 1.10141M733.82 1.1014L640 1.1014M827.64 1.10141L921.46 1.10142M921.46 1.10142L1015.28 1.10143M921.46 1.10142L907.547 29.6401M907.547 29.6401L996.73 29.6401M832.517 381.001L834.244 379.229L836.002 377.426M832.517 381.001L800.431 381.001M832.517 381.001L864.603 381.001M797.628 384.451L794.921 387.783M797.628 384.451L800.431 381.001M797.628 384.451L766.102 384.451M794.921 387.783L763.937 387.783M794.921 387.783L792.951 390.207L792.305 391.002M822.766 391.002L792.305 391.002M822.766 391.002L821.616 392.181L819.732 394.114M822.766 391.002L853.227 391.002M800.431 381.001L803.335 377.426M800.431 381.001L768.345 381.001M766.102 384.451L763.937 387.783M766.102 384.451L768.345 381.001M763.937 387.783L762.881 389.406L762.102 390.605L761.844 391.002M792.305 391.002L761.844 391.002M792.305 391.002L790.401 393.346L789.777 394.114M768.345 381.001L770.08 378.332L770.668 377.426M731.383 391.002L731.191 391.397L730.808 392.181L730.241 393.346L729.866 394.114M731.383 391.002L761.844 391.002M761.844 391.002L761.588 391.397L761.077 392.181L759.821 394.114M836.002 377.426L803.335 377.426M836.002 377.426L868.67 377.426M806.348 373.719L805.965 374.19L805.584 374.659L804.078 376.512L803.335 377.426M806.348 373.719L808.68 370.848L809.473 369.873M806.348 373.719L773.078 373.719M803.335 377.426L770.668 377.426M868.67 377.426L901.337 377.426M868.67 377.426L865.606 380.119L864.603 381.001M770.668 377.426L773.078 373.719M864.603 381.001L896.69 381.001M809.473 369.873L809.871 369.382L810.272 368.889L811.486 367.394L811.895 366.892L812.717 365.879M809.473 369.873L775.578 369.873M773.078 373.719L773.385 373.246L775.578 369.873M775.578 369.873L775.897 369.382L776.218 368.889L776.54 368.393L778.174 365.879M847.26 365.879L851.306 361.73M847.26 365.879L812.717 365.879M847.26 365.879L881.804 365.879M812.717 365.879L816.088 361.73M812.717 365.879L778.174 365.879M778.174 365.879L780.871 361.73M851.306 361.73L816.088 361.73M851.306 361.73L886.524 361.73M819.594 357.415L816.088 361.73M819.594 357.415L823.242 352.925M819.594 357.415L783.675 357.415M816.088 361.73L780.871 361.73M886.524 361.73L921.742 361.73M886.524 361.73L881.804 365.879M780.871 361.73L783.675 357.415M881.804 365.879L916.348 365.879M823.242 352.925L827.041 348.25M823.242 352.925L786.594 352.925M783.675 357.415L784.394 356.31L786.594 352.925M786.594 352.925L787.719 351.195L788.862 349.437L789.633 348.25M864.45 348.25L866.801 345.838L869.202 343.375M864.45 348.25L827.041 348.25M864.45 348.25L901.858 348.25M827.041 348.25L831.002 343.375M827.041 348.25L789.633 348.25M789.633 348.25L792.801 343.375M869.202 343.375L831.002 343.375M869.202 343.375L907.402 343.375M835.133 338.29L831.002 343.375M835.133 338.29L839.447 332.981M835.133 338.29L796.107 338.29M831.002 343.375L792.801 343.375M907.402 343.375L945.603 343.375M907.402 343.375L901.858 348.25M792.801 343.375L796.107 338.29M901.858 348.25L939.266 348.25M839.447 332.981L840.556 331.617L843.956 327.431M839.447 332.981L799.558 332.981M796.107 338.29L799.558 332.981M799.558 332.981L800 332.301L801.341 330.237L803.165 327.431M884.747 327.431L890.409 321.624M884.747 327.431L843.956 327.431M884.747 327.431L925.539 327.431M843.956 327.431L848.674 321.624M843.956 327.431L803.165 327.431M803.165 327.431L806.939 321.624M890.409 321.624L848.674 321.624M890.409 321.624L932.144 321.624M853.616 315.543L850.5 319.377L848.674 321.624M853.616 315.543L858.797 309.167M853.616 315.543L810.893 315.543M848.674 321.624L806.939 321.624M932.144 321.624L973.879 321.624M932.144 321.624L925.539 327.431M806.939 321.624L810.893 315.543M925.539 327.431L966.33 327.431M858.797 309.167L864.235 302.473M858.797 309.167L815.037 309.167M810.893 315.543L815.037 309.167M815.037 309.167L819.388 302.473M909.082 302.473L915.941 295.438M909.082 302.473L864.235 302.473M909.082 302.473L953.929 302.473M864.235 302.473L869.951 295.438M864.235 302.473L819.388 302.473M819.388 302.473L823.961 295.438M915.941 295.438L869.951 295.438M915.941 295.438L961.931 295.438M875.966 288.035L869.951 295.438M875.966 288.035L882.303 280.235M875.966 288.035L828.772 288.035M869.951 295.438L823.961 295.438M961.931 295.438L1007.92 295.438M961.931 295.438L953.929 302.473M823.961 295.438L828.772 288.035M953.929 302.473L998.776 302.473M882.303 280.235L888.991 272.003M882.303 280.235L833.843 280.235M828.772 288.035L833.843 280.235M833.843 280.235L839.193 272.003M938.79 272.003L947.271 263.305M938.79 272.003L888.991 272.003M938.79 272.003L988.588 272.003M888.991 272.003L896.059 263.305M888.991 272.003L839.193 272.003M839.193 272.003L844.847 263.305M947.271 263.305L896.059 263.305M947.271 263.305L998.482 263.305M903.539 254.098L896.059 263.305M903.539 254.098L911.47 244.338M903.539 254.098L850.831 254.098M896.059 263.305L844.847 263.305M998.482 263.305L1049.69 263.305M998.482 263.305L988.588 272.003M844.847 263.305L850.831 254.098M988.588 272.003L1038.39 272.003M911.47 244.338L919.893 233.971M911.47 244.338L857.176 244.338M850.831 254.098L857.176 244.338M857.176 244.338L863.914 233.971M975.871 233.971L986.625 222.941M975.871 233.971L919.893 233.971M975.871 233.971L1031.85 233.971M919.893 233.971L928.854 222.941M919.893 233.971L863.914 233.971M863.914 233.971L871.084 222.941M986.625 222.941L928.854 222.941M986.625 222.941L1044.4 222.941M938.409 211.181L928.854 222.941M938.409 211.181L948.618 198.617M938.409 211.181L878.727 211.181M928.854 222.941L871.084 222.941M1044.4 222.941L1102.17 222.941M1044.4 222.941L1031.85 233.971M871.084 222.941L878.727 211.181M1031.85 233.971L1087.83 233.971M948.618 198.617L959.55 185.162M948.618 198.617L886.894 198.617M878.727 211.181L886.894 198.617M886.894 198.617L895.64 185.162M1023.46 185.162L1037.54 170.719M1023.46 185.162L959.55 185.162M1023.46 185.162L1087.37 185.162M959.55 185.162L971.285 170.719M959.55 185.162L895.64 185.162M895.64 185.162L905.028 170.719M1037.54 170.719L971.285 170.719M1037.54 170.719L1103.8 170.719M983.915 155.175L971.285 170.719M983.915 155.175L997.545 138.399M983.915 155.175L915.132 155.175M971.285 170.719L905.028 170.719M1103.8 170.719L1170.06 170.719M1103.8 170.719L1087.37 185.162M905.028 170.719L915.132 155.175M1087.37 185.162L1151.28 185.162M997.545 138.399L1012.3 120.238M997.545 138.399L926.037 138.399M915.132 155.175L926.037 138.399M926.037 138.399L937.841 120.238M1086.76 120.238L1105.99 100.513M1086.76 120.238L1012.3 120.238M1086.76 120.238L1161.22 120.238M1012.3 120.238L1028.33 100.513M1012.3 120.238L937.841 120.238M937.841 120.238L950.662 100.513M1105.99 100.513L1028.33 100.513M1105.99 100.513L1183.66 100.513M1045.8 79.0143L1028.33 100.513M1045.8 79.0143L1064.91 55.4902M1045.8 79.0143L964.637 79.0143M1028.33 100.513L950.662 100.513M1183.66 100.513L1261.32 100.513M1183.66 100.513L1161.22 120.238M950.662 100.513L964.637 79.0143M1161.22 120.238L1235.68 120.238M1064.91 55.4902L1085.91 29.6401M1064.91 55.4902L979.927 55.4902M964.637 79.0143L979.927 55.4902M979.927 55.4902L996.73 29.6401M1175.09 29.6401L1202.92 1.10144M1175.09 29.6401L1085.91 29.6401M1175.09 29.6401L1264.28 29.6401M1085.91 29.6401L1109.1 1.10143M1085.91 29.6401L996.73 29.6401M996.73 29.6401L1015.28 1.10143M1109.1 1.10143L1202.92 1.10144M1109.1 1.10143L1015.28 1.10143M1202.92 1.10144L1279.66 1.10197M1264.28 29.6401L1279.66 16.1203M1264.28 29.6401L1279.66 29.6401M960.862 381.001L966.671 377.426M960.862 381.001L928.776 381.001M960.862 381.001L992.948 381.001M923.73 384.451L918.857 387.783M923.73 384.451L928.776 381.001M923.73 384.451L892.204 384.451M918.857 387.783L887.873 387.783M918.857 387.783L914.149 391.002M944.611 391.002L914.149 391.002M944.611 391.002L942.694 392.181L939.553 394.114M944.611 391.002L975.072 391.002M928.776 381.001L934.004 377.426M928.776 381.001L896.69 381.001M892.204 384.451L887.873 387.783M892.204 384.451L896.69 381.001M887.873 387.783L884.721 390.207L883.688 391.002M914.149 391.002L913.572 391.397L909.597 394.114M914.149 391.002L883.688 391.002M896.69 381.001L901.337 377.426M853.227 391.002L849.687 394.114M853.227 391.002L883.688 391.002M883.688 391.002L882.155 392.181L879.642 394.114M966.671 377.426L934.004 377.426M966.671 377.426L999.338 377.426M939.425 373.719L934.004 377.426M939.425 373.719L945.05 369.873M939.425 373.719L906.156 373.719M934.004 377.426L901.337 377.426M999.338 377.426L1032.01 377.426M999.338 377.426L992.948 381.001M901.337 377.426L906.156 373.719M992.948 381.001L1025.03 381.001M945.05 369.873L946.49 368.889L950.891 365.879M945.05 369.873L911.156 369.873M906.156 373.719L911.156 369.873M911.156 369.873L916.348 365.879M985.435 365.879L986.263 365.369L992.177 361.73M985.435 365.879L950.891 365.879M985.435 365.879L1019.98 365.879M950.891 365.879L956.959 361.73M950.891 365.879L916.348 365.879M916.348 365.879L917.01 365.369L921.742 361.73M992.177 361.73L956.959 361.73M992.177 361.73L1027.39 361.73M963.269 357.415L956.959 361.73M963.269 357.415L969.836 352.926M963.269 357.415L927.351 357.415M956.959 361.73L921.742 361.73M1027.39 361.73L1062.61 361.73M1027.39 361.73L1019.98 365.879M921.742 361.73L927.351 357.415M1019.98 365.879L1054.52 365.879M969.836 352.926L976.675 348.25M969.836 352.926L933.187 352.925M927.351 357.415L933.187 352.925M933.187 352.925L939.266 348.25M1014.08 348.25L1022 343.375M1014.08 348.25L976.675 348.25M1014.08 348.25L1051.49 348.25M976.675 348.25L983.803 343.375M976.675 348.25L939.266 348.25M939.266 348.25L945.603 343.375M1022 343.375L983.803 343.375M1022 343.375L1060.2 343.375M991.24 338.29L983.803 343.375M991.24 338.29L999.005 332.981M991.24 338.29L952.213 338.29M983.803 343.375L945.603 343.375M1060.2 343.375L1098.4 343.375M1060.2 343.375L1051.49 348.25M945.603 343.375L952.213 338.29M1051.49 348.25L1088.9 348.25M999.005 332.981L1007.12 327.431M999.005 332.981L959.115 332.981M952.213 338.29L959.115 332.981M959.115 332.981L966.33 327.431M1047.91 327.431L1057.35 321.624M1047.91 327.431L1007.12 327.431M1047.91 327.431L1088.7 327.431M1007.12 327.431L1015.61 321.624M1007.12 327.431L966.33 327.431M966.33 327.431L973.879 321.624M1057.35 321.624L1015.61 321.624M1057.35 321.624L1099.08 321.624M1024.51 315.543L1015.61 321.624M1024.51 315.543L1033.83 309.167M1024.51 315.543L981.785 315.543M1015.61 321.624L973.879 321.624M1099.08 321.624L1140.82 321.624M1099.08 321.624L1088.7 327.431M973.879 321.624L981.785 315.543M1088.7 327.431L1129.5 327.431M1033.83 309.167L1043.62 302.473M1033.83 309.167L990.075 309.167M981.785 315.543L990.075 309.167M990.075 309.167L998.776 302.473M1088.47 302.473L1099.9 295.438M1088.47 302.473L1043.62 302.473M1088.47 302.473L1133.32 302.473M1043.62 302.473L1053.91 295.438M1043.62 302.473L998.776 302.473M998.776 302.473L1007.92 295.438M1099.9 295.438L1053.91 295.438M1099.9 295.438L1145.89 295.438M1064.74 288.035L1053.91 295.438M1064.74 288.035L1076.15 280.235M1064.74 288.035L1017.55 288.035M1053.91 295.438L1007.92 295.438M1145.89 295.438L1191.88 295.438M1145.89 295.438L1133.32 302.473M1007.92 295.438L1017.55 288.035M1133.32 302.473L1178.16 302.473M1076.15 280.235L1088.18 272.003M1076.15 280.235L1027.69 280.235M1017.55 288.035L1027.69 280.235M1027.69 280.235L1038.39 272.003M1137.98 272.003L1152.12 263.305M1137.98 272.003L1088.18 272.003M1137.98 272.003L1187.78 272.003M1088.18 272.003L1100.91 263.305M1088.18 272.003L1038.39 272.003M1038.39 272.003L1049.69 263.305M1152.12 263.305L1100.91 263.305M1152.12 263.305L1203.33 263.305M1114.37 254.098L1100.91 263.305M1114.37 254.098L1128.65 244.338M1114.37 254.098L1061.66 254.098M1100.91 263.305L1049.69 263.305M1203.33 263.305L1254.54 263.306M1203.33 263.305L1187.78 272.003M1049.69 263.305L1061.66 254.098M1187.78 272.003L1237.58 272.003M1128.65 244.338L1143.81 233.971M1128.65 244.338L1074.35 244.338M1061.66 254.098L1074.35 244.338M1074.35 244.338L1087.83 233.971M1199.79 233.971L1217.71 222.941M1199.79 233.971L1143.81 233.971M1199.79 233.971L1255.76 233.971M1143.81 233.971L1159.94 222.941M1143.81 233.971L1087.83 233.971M1087.83 233.971L1102.17 222.941M1217.71 222.941L1159.94 222.941M1217.71 222.941L1275.48 222.941M1177.14 211.181L1159.94 222.941M1177.14 211.181L1195.51 198.617M1177.14 211.181L1117.46 211.181M1159.94 222.941L1102.17 222.941M1275.48 222.941L1255.76 233.971M1275.48 222.941L1279.66 222.941M1275.48 222.941L1279.66 220.605M1102.17 222.941L1117.46 211.181M1255.76 233.971L1279.66 233.971M1195.51 198.617L1215.19 185.162M1195.51 198.617L1133.79 198.617M1117.46 211.181L1133.79 198.617M1133.79 198.617L1151.28 185.162M1279.1 185.162L1215.19 185.162M1279.1 185.162L1279.66 185.162M1279.1 185.162L1279.66 184.821M1215.19 185.162L1236.31 170.719M1215.19 185.162L1151.28 185.162M1151.28 185.162L1170.06 170.719M1259.05 155.175L1236.31 170.719M1259.05 155.175L1190.26 155.175M1259.05 155.175L1279.66 155.175M1259.05 155.175L1279.66 141.084M1236.31 170.719L1170.06 170.719M1236.31 170.719L1279.66 170.719M1170.06 170.719L1190.26 155.175M1190.26 155.175L1212.07 138.399M1212.07 138.399L1235.68 120.238M1212.07 138.399L1279.66 138.399M1235.68 120.238L1261.32 100.513M1235.68 120.238L1279.66 120.238M1261.32 100.513L1279.66 100.513M1261.32 100.513L1279.66 86.412M1089.21 381.001L1097.34 377.426M1089.21 381.001L1057.12 381.001M1089.21 381.001L1121.29 381.001M1049.83 384.451L1042.79 387.783M1049.83 384.451L1057.12 381.001M1049.83 384.451L1018.31 384.451M1042.79 387.783L1011.81 387.783M1042.79 387.783L1035.99 391.002M1066.45 391.002L1035.99 391.002M1066.45 391.002L1059.37 394.114M1066.45 391.002L1096.92 391.002M1057.12 381.001L1064.67 377.426M1057.12 381.001L1025.03 381.001M1018.31 384.451L1011.81 387.783M1018.31 384.451L1025.03 381.001M1011.81 387.783L1005.53 391.002M1035.99 391.002L1035.16 391.397L1029.42 394.114M1035.99 391.002L1005.53 391.002M1025.03 381.001L1032.01 377.426M975.072 391.002L969.509 394.114M975.072 391.002L1005.53 391.002M1005.53 391.002L1004.76 391.397L999.464 394.114M1097.34 377.426L1064.67 377.426M1097.34 377.426L1130.01 377.426M1072.5 373.719L1064.67 377.426M1072.5 373.719L1080.63 369.873M1072.5 373.719L1039.23 373.719M1064.67 377.426L1032.01 377.426M1130.01 377.426L1162.67 377.426M1130.01 377.426L1121.29 381.001M1032.01 377.426L1039.23 373.719M1121.29 381.001L1153.38 381.001M1080.63 369.873L1089.06 365.879M1080.63 369.873L1046.73 369.873M1039.23 373.719L1040.16 373.246L1046.73 369.873M1046.73 369.873L1054.52 365.879M1123.61 365.88L1133.05 361.73M1123.61 365.88L1089.06 365.879M1123.61 365.88L1158.15 365.88M1089.06 365.879L1097.83 361.73M1089.06 365.879L1054.52 365.879M1054.52 365.879L1062.61 361.73M1133.05 361.73L1097.83 361.73M1133.05 361.73L1168.27 361.73M1106.94 357.415L1097.83 361.73M1106.94 357.415L1116.43 352.926M1106.94 357.415L1071.03 357.415M1097.83 361.73L1062.61 361.73M1168.27 361.73L1203.48 361.73M1168.27 361.73L1158.15 365.88M1062.61 361.73L1071.03 357.415M1158.15 365.88L1192.7 365.88M1116.43 352.926L1126.31 348.25M1116.43 352.926L1079.78 352.926M1071.03 357.415L1079.78 352.926M1079.78 352.926L1088.9 348.25M1163.72 348.25L1174.8 343.375M1163.72 348.25L1126.31 348.25M1163.72 348.25L1201.12 348.25M1126.31 348.25L1136.6 343.375M1126.31 348.25L1088.9 348.25M1088.9 348.25L1098.4 343.375M1174.8 343.375L1136.6 343.375M1174.8 343.375L1213 343.375M1147.35 338.29L1136.6 343.375M1147.35 338.29L1158.56 332.981M1147.35 338.29L1108.32 338.29M1136.6 343.375L1098.4 343.375M1213 343.375L1251.2 343.375M1213 343.375L1201.12 348.25M1098.4 343.375L1108.32 338.29M1201.12 348.25L1238.53 348.25M1158.56 332.981L1170.29 327.431M1158.56 332.981L1118.67 332.981M1108.32 338.29L1118.67 332.981M1118.67 332.981L1129.5 327.431M1211.08 327.431L1224.29 321.625M1211.08 327.431L1170.29 327.431M1211.08 327.431L1251.87 327.431M1170.29 327.431L1182.55 321.624M1170.29 327.431L1129.5 327.431M1129.5 327.431L1140.82 321.624M1224.29 321.625L1182.55 321.624M1195.4 315.543L1182.55 321.624M1195.4 315.543L1208.87 309.167M1195.4 315.543L1152.68 315.543M1182.55 321.624L1140.82 321.624M1140.82 321.624L1152.68 315.543M1251.87 327.431L1279.66 327.431M1208.87 309.167L1223.01 302.473M1208.87 309.167L1165.11 309.167M1152.68 315.543L1165.11 309.167M1165.11 309.167L1178.16 302.473M1267.86 302.473L1223.01 302.473M1267.86 302.473L1279.66 302.473M1267.86 302.473L1279.66 297.287M1223.01 302.473L1237.87 295.438M1223.01 302.473L1178.16 302.473M1178.16 302.473L1191.88 295.438M1253.51 288.035L1237.87 295.438M1253.51 288.035L1269.99 280.235M1253.51 288.035L1206.32 288.035M1253.51 288.035L1279.66 288.035M1237.87 295.438L1191.88 295.438M1237.87 295.438L1279.66 295.438M1191.88 295.438L1206.32 288.035M1279.79 297.23L1279.66 297.287M1269.99 280.235L1221.53 280.235M1269.99 280.235L1279.66 280.235M1269.99 280.235L1279.66 275.659M1206.32 288.035L1221.53 280.235M1221.53 280.235L1237.58 272.003M1237.58 272.003L1254.54 263.306M1237.58 272.003L1279.66 272.003M1272.49 254.098L1254.54 263.306M1272.49 254.098L1279.66 254.098M1272.49 254.098L1279.66 250.426M1254.54 263.306L1279.66 263.306M1217.55 381.001L1228.01 377.426M1217.55 381.001L1185.46 381.001M1217.55 381.001L1249.64 381.001M1175.93 384.451L1166.73 387.783M1175.93 384.451L1185.46 381.001M1175.93 384.451L1144.41 384.451M1166.73 387.783L1135.75 387.783M1166.73 387.783L1157.84 391.002M1188.3 391.002L1157.84 391.002M1188.3 391.002L1179.2 394.114M1188.3 391.002L1218.76 391.002M1185.46 381.001L1195.34 377.426M1185.46 381.001L1153.38 381.001M1144.41 384.451L1135.75 387.783M1144.41 384.451L1153.38 381.001M1135.75 387.783L1127.38 391.002M1157.84 391.002L1127.38 391.002M1157.84 391.002L1149.24 394.114M1153.38 381.001L1162.67 377.426M1096.92 391.002L1089.33 394.114M1096.92 391.002L1127.38 391.002M1127.38 391.002L1119.28 394.114M1228.01 377.426L1195.34 377.426M1228.01 377.426L1260.68 377.426M1205.58 373.719L1195.34 377.426M1205.58 373.719L1216.21 369.873M1205.58 373.719L1172.31 373.719M1195.34 377.426L1162.67 377.426M1260.68 377.426L1249.64 381.001M1260.68 377.426L1279.66 377.426M1162.67 377.426L1172.31 373.719M1249.64 381.001L1279.66 381.001M1216.21 369.873L1227.24 365.88M1216.21 369.873L1182.31 369.873M1172.31 373.719L1182.31 369.873M1182.31 369.873L1192.7 365.88M1261.78 365.88L1273.92 361.73M1261.78 365.88L1227.24 365.88M1261.78 365.88L1279.66 365.88M1227.24 365.88L1238.7 361.73M1227.24 365.88L1192.7 365.88M1192.7 365.88L1203.48 361.73M1250.62 357.415L1238.7 361.73M1250.62 357.415L1263.02 352.926M1250.62 357.415L1214.7 357.415M1250.62 357.415L1279.66 357.415M1238.7 361.73L1273.92 361.73M1238.7 361.73L1203.48 361.73M1273.92 361.73L1279.66 359.769M1273.92 361.73L1279.66 361.73M1203.48 361.73L1214.7 357.415M1263.02 352.926L1275.94 348.25M1263.02 352.926L1226.37 352.926M1263.02 352.926L1279.66 352.926M1214.7 357.415L1226.37 352.926M1226.37 352.926L1238.53 348.25M1275.94 348.25L1238.53 348.25M1275.94 348.25L1279.66 346.905M1275.94 348.25L1279.66 348.25M1238.53 348.25L1251.2 343.375M1264.43 338.291L1251.2 343.375M1264.43 338.291L1278.23 332.981M1264.43 338.291L1279.66 338.291M1251.2 343.375L1279.66 343.375M1279.86 343.375L1279.66 343.375M1278.23 332.981L1279.66 332.981M1278.23 332.981L1279.66 332.433M1280 332.301L1279.66 332.433M1270.51 384.451L1259.68 387.783M1270.51 384.451L1279.66 384.451M1270.51 384.451L1279.66 381.637M1259.68 387.783L1249.22 391.002M1259.68 387.783L1279.66 387.783M1218.76 391.002L1209.15 394.114M1218.76 391.002L1249.22 391.002M1249.22 391.002L1239.11 394.114M1249.22 391.002L1279.66 391.002M220.626 394.114L190.671 394.114M220.626 394.114L250.581 394.114M198.009 397.124L196.197 396.381L190.671 394.114M198.009 397.124L168.543 397.124M190.671 394.114L160.715 394.114M168.543 397.124L166.61 396.381L165.637 396.007L160.715 394.114M160.715 394.114L130.76 394.114M130.76 394.114L100.804 394.114M250.581 394.114L280.536 394.114M100.804 394.114L70.8491 394.114M70.8491 394.114L80.1448 397.124M70.8491 394.114L40.894 394.114M80.1448 397.124L50.6787 397.124M340.447 394.114L310.491 394.114M340.447 394.114L370.402 394.114M315.873 397.124L314.545 396.381L313.876 396.007L310.491 394.114M315.873 397.124L286.407 397.124M310.491 394.114L280.536 394.114M286.407 397.124L280.536 394.114M370.402 394.114L400.358 394.114M460.268 394.114L430.313 394.114M460.268 394.114L490.223 394.114M433.738 397.124L433.315 396.754L432.892 396.381L432.466 396.007L430.313 394.114M433.738 397.124L404.272 397.124M430.313 394.114L400.358 394.114M404.272 397.124L400.358 394.114M490.223 394.114L520.179 394.114M580.09 394.114L550.134 394.114M580.09 394.114L610.045 394.114M551.602 397.124L550.134 394.114M551.602 397.124L522.135 397.124M550.134 394.114L520.179 394.114M522.135 397.124L521.894 396.754L521.652 396.381L521.409 396.007L520.179 394.114M610.045 394.114L640 394.114M699.91 394.114L669.955 394.114M699.91 394.114L729.866 394.114M669.466 397.124L669.955 394.114M669.466 397.124L640 397.124M669.955 394.114L640 394.114M640 397.124L640 394.114M729.866 394.114L759.821 394.114M819.732 394.114L789.777 394.114M819.732 394.114L849.687 394.114M787.331 397.124L787.934 396.381L789.158 394.876L789.777 394.114M787.331 397.124L757.864 397.124M789.777 394.114L759.821 394.114M757.864 397.124L758.106 396.754L758.348 396.381L758.591 396.007L759.821 394.114M849.687 394.114L879.642 394.114M939.553 394.114L909.597 394.114M939.553 394.114L969.509 394.114M905.195 397.124L906.282 396.381L906.829 396.008L909.597 394.114M905.195 397.124L875.728 397.124M909.597 394.114L879.642 394.114M875.728 397.124L876.211 396.754L879.642 394.114M969.509 394.114L999.464 394.114M1059.37 394.114L1029.42 394.114M1059.37 394.114L1089.33 394.114M1023.06 397.124L1024.63 396.381L1025.42 396.008L1029.42 394.114M1023.06 397.124L993.593 397.124M1029.42 394.114L999.464 394.114M993.593 397.124L994.316 396.754L999.464 394.114M1089.33 394.114L1119.28 394.114M1179.2 394.114L1149.24 394.114M1179.2 394.114L1209.15 394.114M1140.92 397.124L1149.24 394.114M1140.92 397.124L1111.46 397.124M1149.24 394.114L1119.28 394.114M1111.46 397.124L1113.39 396.381L1114.36 396.008L1119.28 394.114M1209.15 394.114L1239.11 394.114M1258.79 397.124L1269.06 394.114M1258.79 397.124L1229.32 397.124M1258.79 397.124L1279.66 397.124M1269.06 394.114L1239.11 394.114M1269.06 394.114L1279.66 391.009M1269.06 394.114L1279.66 394.114M1229.32 397.124L1231.74 396.381L1239.11 394.114M50.6787 397.124L48.2626 396.381L40.894 394.114M40.894 394.114L10.9387 394.114M10.9387 394.114L0.344437 391.009M10.9387 394.114L0.344437 394.114M0.34445 250.426L0.34445 254.098M0.34445 250.426L0.344451 244.338M0.34445 254.098L0.344449 263.305M0.344451 244.338L0.344451 242.519L0.344452 233.971M0.344452 233.971L0.344453 222.941M0.344444 321.624L0.344443 327.431M0.344444 321.624L0.344444 316.032M0.344437 397.124L0.344437 394.114M0.344437 394.114L0.344437 391.009M0.344437 391.009L0.318491 391.002L0.344437 391.002M0.344437 391.009L0.344437 391.002M0.344437 391.002L0.344438 387.783M0.344438 387.783L0.344438 384.451M0.344438 384.451L0.344438 381.637M0.344438 381.637L0.344438 381.001M0.344438 381.001L0.344439 377.426M0.344439 377.426L0.344439 373.719M0.344439 373.719L0.344439 371.279M0.344439 371.279L0.344439 369.873M0.344439 369.873L0.34444 365.879M0.34444 365.879L0.34444 361.73M0.34444 361.73L0.34444 359.769M0.34444 359.769L0.34444 357.415M0.34444 357.415L0.344441 352.925M0.344441 352.925L0.344441 348.249M0.344441 348.249L0.344441 346.905M0.344441 346.905L0.344442 343.375M0.344442 343.375L0.344442 338.29M0.344442 338.29L0.344443 332.981M0.344443 332.981L0.344443 332.433M0.344443 332.433L0.344443 327.431M0.344444 315.543L0.344445 309.166M0.344444 315.543L0.344444 316.032M0.344445 309.166L0.344445 302.473M0.344445 302.473L0.344446 297.287M0.344446 297.287L0.344446 295.438M0.344446 295.438L0.344447 288.035M0.344447 288.035L0.344447 280.235M0.344447 280.235L0.344448 275.659M0.344448 275.659L0.344448 272.003M0.344448 272.003L0.344449 263.305M0.344453 222.941L0.344453 220.605M0.344453 220.605L0.344454 211.181M0.344454 211.181L0.344455 198.617M0.344455 198.617L0.344456 185.162M0.344456 185.162L0.344456 184.821M0.344456 184.821L0.344457 170.719M0.344457 170.719L0.344459 155.175M0.344459 155.175L0.34446 141.083M0.34446 141.083L0.34446 138.399M0.34446 138.399L0.344462 120.238M0.344462 120.238L0.344464 100.513M0.344464 100.513L0.344465 86.4119M0.344465 86.4119L0.344466 79.0142M0.344466 79.0142L0.344468 55.4901M0.344468 55.4901L0.34447 29.64M0.34447 29.64L0.344471 16.1202M0.344471 16.1202L0.344473 1.10187M0.344473 1.10187L0.344473 0.999963L1279.66 1.00007L1279.66 1.10197M1279.66 315.543L1279.66 309.167M1279.66 315.543L1279.66 316.032M1279.66 316.032L1279.66 321.625M1279.66 321.625L1279.66 327.431M1279.66 327.431L1279.66 332.433M1279.66 332.433L1279.66 332.981M1279.66 332.981L1279.66 338.291M1279.66 338.291L1279.66 343.375M1279.66 343.375L1279.66 346.905M1279.66 346.905L1279.66 348.25M1279.66 348.25L1279.66 352.926M1279.66 352.926L1279.66 357.415M1279.66 357.415L1279.66 359.769M1279.66 359.769L1279.66 361.73M1279.66 361.73L1279.66 365.88M1279.66 365.88L1279.66 369.873M1279.66 369.873L1279.66 371.279M1279.66 371.279L1279.66 373.719M1279.66 373.719L1279.66 377.426M1279.66 377.426L1279.66 381.001M1279.66 381.001L1279.66 381.637M1279.66 381.637L1279.66 384.451M1279.66 384.451L1279.66 387.783M1279.66 387.783L1279.66 391.002M1279.66 391.002L1279.68 391.002L1279.66 391.009M1279.66 391.002L1279.66 391.009M1279.66 391.009L1279.66 394.114M1279.66 394.114L1279.66 397.124M1279.66 1.10197L1279.66 16.1203M1279.66 16.1203L1279.66 29.6401M1279.66 29.6401L1279.66 55.4897M1279.66 55.4897L1279.66 79.0144M1279.66 79.0144L1279.66 86.412M1279.66 86.412L1279.66 100.513M1279.66 100.513L1279.66 120.238M1279.66 120.238L1279.66 138.399M1279.66 138.399L1279.66 141.084M1279.66 141.084L1279.66 155.175M1279.66 155.175L1279.66 170.719M1279.66 170.719L1279.66 184.821M1279.66 184.821L1279.66 185.162M1279.66 185.162L1279.66 198.617M1279.66 198.617L1279.66 211.181M1279.66 211.181L1279.66 220.605M1279.66 220.605L1279.66 222.941M1279.66 222.941L1279.66 233.971M1279.66 233.971L1279.66 244.338M1279.66 244.338L1279.66 250.426M1279.66 250.426L1279.66 254.098M1279.66 254.098L1279.66 263.306M1279.66 263.306L1279.66 272.003M1279.66 272.003L1279.66 275.659M1279.66 275.659L1279.66 280.235M1279.66 280.235L1279.66 288.035M1279.66 288.035L1279.66 295.438M1279.66 295.438L1279.66 297.287M1279.66 297.287L1279.66 302.473M1279.66 302.473L1279.66 309.167" stroke="url(#paint0_radial_42_518)" stroke-opacity="0.6" stroke-width="1.8895" stroke-miterlimit="10" stroke-linecap="round" stroke-linejoin="round"/>
</g>
<defs>
<radialGradient id="paint0_radial_42_518" cx="0" cy="0" r="1" gradientUnits="userSpaceOnUse" gradientTransform="translate(640 15.7073) rotate(90) scale(624.642 2003.67)">
<stop stop-color="#525252"/>
<stop offset="0.489074" stop-color="#CED2DF" stop-opacity="0"/>
</radialGradient>
</defs>
</svg>
