<svg width="1280" height="768" viewBox="0 0 1280 768" fill="none" xmlns="http://www.w3.org/2000/svg">
<g opacity="0.3">
<g style="mix-blend-mode:soft-light" opacity="0.7">
<path d="M-24.8721 11.1845H-56.5089V48.4661M-24.8721 11.1845V48.4661M-24.8721 11.1845H6.76463M-24.8721 48.4661H-56.5089M-24.8721 48.4661V85.7477M-24.8721 48.4661H6.76463M-56.5089 48.4661V85.7477M-24.8721 85.7477H-56.5089M-24.8721 85.7477V123.029M-24.8721 85.7477H6.76463M-56.5089 85.7477V123.029M-24.8721 123.029H-56.5089M-24.8721 123.029V160.311M-24.8721 123.029H6.76463M-56.5089 123.029V160.311M-24.8721 160.311H-56.5089M-24.8721 160.311V197.592M-24.8721 160.311H6.76463M-56.5089 160.311V197.592M-24.8721 197.592H-56.5089M-24.8721 197.592V234.874M-24.8721 197.592H6.76463M-56.5089 197.592V234.874M-24.8721 234.874H-56.5089M-24.8721 234.874V272.155M-24.8721 234.874H6.76463M-56.5089 234.874V272.155M-24.8721 272.155H-56.5089M-24.8721 272.155V309.437M-24.8721 272.155H6.76463M-56.5089 272.155V309.437M-24.8721 309.437H-56.5089M-24.8721 309.437V346.719M-24.8721 309.437H6.76463M-56.5089 309.437V346.719M-24.8721 346.719H-56.5089M-24.8721 346.719V384M-24.8721 346.719H6.76463M-56.5089 346.719V384M-24.8721 384H-56.5089M-24.8721 384V421.282M-24.8721 384H6.76463M-56.5089 384V421.282M-24.8721 421.282H-56.5089M-24.8721 421.282V458.563M-24.8721 421.282H6.76463M-56.5089 421.282V458.563M-24.8721 458.563H-56.5089M-24.8721 458.563V495.845M-24.8721 458.563H6.76463M-56.5089 458.563V495.845M-24.8721 495.845H-56.5089M-24.8721 495.845V533.126M-24.8721 495.845H6.76463M-56.5089 495.845V533.126M-24.8721 533.126H-56.5089M-24.8721 533.126V570.408M-24.8721 533.126H6.76463M-56.5089 533.126V570.408M-24.8721 570.408H-56.5089M-24.8721 570.408V607.69M-24.8721 570.408H6.76463M-56.5089 570.408V607.69M-24.8721 607.69H-56.5089M-24.8721 607.69V644.971M-24.8721 607.69H6.76463M-56.5089 607.69V644.971M-24.8721 644.971H-56.5089M-24.8721 644.971V682.253M-24.8721 644.971H6.76463M-56.5089 644.971V682.253M-24.8721 682.253H-56.5089M-24.8721 682.253V719.534M-24.8721 682.253H6.76463M-56.5089 682.253V719.534M-24.8721 719.534H-56.5089M-24.8721 719.534V756.816M-24.8721 719.534H6.76463M-56.5089 719.534V756.816H-24.8721M-24.8721 756.816H6.76463M6.76463 11.1845V48.4661M6.76463 11.1845H38.4014M6.76463 48.4661V85.7477M6.76463 48.4661H38.4014M6.76463 85.7477V123.029M6.76463 85.7477H38.4014M6.76463 123.029V160.311M6.76463 123.029H38.4014M6.76463 160.311V197.592M6.76463 160.311H38.4014M6.76463 197.592V234.874M6.76463 197.592H38.4014M6.76463 234.874V272.155M6.76463 234.874H38.4014M6.76463 272.155V309.437M6.76463 272.155H38.4014M6.76463 309.437V346.719M6.76463 309.437H38.4014M6.76463 346.719V384M6.76463 346.719H38.4014M6.76463 384V421.282M6.76463 384H38.4014M6.76463 421.282V458.563M6.76463 421.282H38.4014M6.76463 458.563V495.845M6.76463 458.563H38.4014M6.76463 495.845V533.126M6.76463 495.845H38.4014M6.76463 533.126V570.408M6.76463 533.126H38.4014M6.76463 570.408V607.69M6.76463 570.408H38.4014M6.76463 607.69V644.971M6.76463 607.69H38.4014M6.76463 644.971V682.253M6.76463 644.971H38.4014M6.76463 682.253V719.534M6.76463 682.253H38.4014M6.76463 719.534V756.816M6.76463 719.534H38.4014M6.76463 756.816H38.4014M38.4014 11.1845V48.4661M38.4014 11.1845H70.0382M38.4014 48.4661V85.7477M38.4014 48.4661H70.0382M38.4014 85.7477V123.029M38.4014 85.7477H70.0382M38.4014 123.029V160.311M38.4014 123.029H70.0382M38.4014 160.311V197.592M38.4014 160.311H70.0382M38.4014 197.592V234.874M38.4014 197.592H70.0382M38.4014 234.874V272.155M38.4014 234.874H70.0382M38.4014 272.155V309.437M38.4014 272.155H70.0382M38.4014 309.437V346.719M38.4014 309.437H70.0382M38.4014 346.719V384M38.4014 346.719H70.0382M38.4014 384V421.282M38.4014 384H70.0382M38.4014 421.282V458.563M38.4014 421.282H70.0382M38.4014 458.563V495.845M38.4014 458.563H70.0382M38.4014 495.845V533.126M38.4014 495.845H70.0382M38.4014 533.126V570.408M38.4014 533.126H70.0382M38.4014 570.408V607.69M38.4014 570.408H70.0382M38.4014 607.69V644.971M38.4014 607.69H70.0382M38.4014 644.971V682.253M38.4014 644.971H70.0382M38.4014 682.253V719.534M38.4014 682.253H70.0382M38.4014 719.534V756.816M38.4014 719.534H70.0382M38.4014 756.816H70.0382M70.0382 11.1845V48.4661M70.0382 11.1845H101.675M70.0382 48.4661V85.7477M70.0382 48.4661H101.675M70.0382 85.7477V123.029M70.0382 85.7477H101.675M70.0382 123.029V160.311M70.0382 123.029H101.675M70.0382 160.311V197.592M70.0382 160.311H101.675M70.0382 197.592V234.874M70.0382 197.592H101.675M70.0382 234.874V272.155M70.0382 234.874H101.675M70.0382 272.155V309.437M70.0382 272.155H101.675M70.0382 309.437V346.719M70.0382 309.437H101.675M70.0382 346.719V384M70.0382 346.719H101.675M70.0382 384V421.282M70.0382 384H101.675M70.0382 421.282V458.563M70.0382 421.282H101.675M70.0382 458.563V495.845M70.0382 458.563H101.675M70.0382 495.845V533.126M70.0382 495.845H101.675M70.0382 533.126V570.408M70.0382 533.126H101.675M70.0382 570.408V607.69M70.0382 570.408H101.675M70.0382 607.69V644.971M70.0382 607.69H101.675M70.0382 644.971V682.253M70.0382 644.971H101.675M70.0382 682.253V719.534M70.0382 682.253H101.675M70.0382 719.534V756.816M70.0382 719.534H101.675M70.0382 756.816H101.675M101.675 11.1845V48.4661M101.675 11.1845H133.312M101.675 48.4661V85.7477M101.675 48.4661H133.312M101.675 85.7477V123.029M101.675 85.7477H133.312M101.675 123.029V160.311M101.675 123.029H133.312M101.675 160.311V197.592M101.675 160.311H133.312M101.675 197.592V234.874M101.675 197.592H133.312M101.675 234.874V272.155M101.675 234.874H133.312M101.675 272.155V309.437M101.675 272.155H133.312M101.675 309.437V346.719M101.675 309.437H133.312M101.675 346.719V384M101.675 346.719H133.312M101.675 384V421.282M101.675 384H133.312M101.675 421.282V458.563M101.675 421.282H133.312M101.675 458.563V495.845M101.675 458.563H133.312M101.675 495.845V533.126M101.675 495.845H133.312M101.675 533.126V570.408M101.675 533.126H133.312M101.675 570.408V607.69M101.675 570.408H133.312M101.675 607.69V644.971M101.675 607.69H133.312M101.675 644.971V682.253M101.675 644.971H133.312M101.675 682.253V719.534M101.675 682.253H133.312M101.675 719.534V756.816M101.675 719.534H133.312M101.675 756.816H133.312M133.312 11.1845V48.4661M133.312 11.1845H164.948M133.312 48.4661V85.7477M133.312 48.4661H164.948M133.312 85.7477V123.029M133.312 85.7477H164.948M133.312 123.029V160.311M133.312 123.029H164.948M133.312 160.311V197.592M133.312 160.311H164.948M133.312 197.592V234.874M133.312 197.592H164.948M133.312 234.874V272.155M133.312 234.874H164.948M133.312 272.155V309.437M133.312 272.155H164.948M133.312 309.437V346.719M133.312 309.437H164.948M133.312 346.719V384M133.312 346.719H164.948M133.312 384V421.282M133.312 384H164.948M133.312 421.282V458.563M133.312 421.282H164.948M133.312 458.563V495.845M133.312 458.563H164.948M133.312 495.845V533.126M133.312 495.845H164.948M133.312 533.126V570.408M133.312 533.126H164.948M133.312 570.408V607.69M133.312 570.408H164.948M133.312 607.69V644.971M133.312 607.69H164.948M133.312 644.971V682.253M133.312 644.971H164.948M133.312 682.253V719.534M133.312 682.253H164.948M133.312 719.534V756.816M133.312 719.534H164.948M133.312 756.816H164.948M164.948 11.1845V48.4661M164.948 11.1845H196.585M164.948 48.4661V85.7477M164.948 48.4661H196.585M164.948 85.7477V123.029M164.948 85.7477H196.585M164.948 123.029V160.311M164.948 123.029H196.585M164.948 160.311V197.592M164.948 160.311H196.585M164.948 197.592V234.874M164.948 197.592H196.585M164.948 234.874V272.155M164.948 234.874H196.585M164.948 272.155V309.437M164.948 272.155H196.585M164.948 309.437V346.719M164.948 309.437H196.585M164.948 346.719V384M164.948 346.719H196.585M164.948 384V421.282M164.948 384H196.585M164.948 421.282V458.563M164.948 421.282H196.585M164.948 458.563V495.845M164.948 458.563H196.585M164.948 495.845V533.126M164.948 495.845H196.585M164.948 533.126V570.408M164.948 533.126H196.585M164.948 570.408V607.69M164.948 570.408H196.585M164.948 607.69V644.971M164.948 607.69H196.585M164.948 644.971V682.253M164.948 644.971H196.585M164.948 682.253V719.534M164.948 682.253H196.585M164.948 719.534V756.816M164.948 719.534H196.585M164.948 756.816H196.585M196.585 11.1845V48.4661M196.585 11.1845H228.222M196.585 48.4661V85.7477M196.585 48.4661H228.222M196.585 85.7477V123.029M196.585 85.7477H228.222M196.585 123.029V160.311M196.585 123.029H228.222M196.585 160.311V197.592M196.585 160.311H228.222M196.585 197.592V234.874M196.585 197.592H228.222M196.585 234.874V272.155M196.585 234.874H228.222M196.585 272.155V309.437M196.585 272.155H228.222M196.585 309.437V346.719M196.585 309.437H228.222M196.585 346.719V384M196.585 346.719H228.222M196.585 384V421.282M196.585 384H228.222M196.585 421.282V458.563M196.585 421.282H228.222M196.585 458.563V495.845M196.585 458.563H228.222M196.585 495.845V533.126M196.585 495.845H228.222M196.585 533.126V570.408M196.585 533.126H228.222M196.585 570.408V607.69M196.585 570.408H228.222M196.585 607.69V644.971M196.585 607.69H228.222M196.585 644.971V682.253M196.585 644.971H228.222M196.585 682.253V719.534M196.585 682.253H228.222M196.585 719.534V756.816M196.585 719.534H228.222M196.585 756.816H228.222M228.222 11.1845V48.4661M228.222 11.1845H259.859M228.222 48.4661V85.7477M228.222 48.4661H259.859M228.222 85.7477V123.029M228.222 85.7477H259.859M228.222 123.029V160.311M228.222 123.029H259.859M228.222 160.311V197.592M228.222 160.311H259.859M228.222 197.592V234.874M228.222 197.592H259.859M228.222 234.874V272.155M228.222 234.874H259.859M228.222 272.155V309.437M228.222 272.155H259.859M228.222 309.437V346.719M228.222 309.437H259.859M228.222 346.719V384M228.222 346.719H259.859M228.222 384V421.282M228.222 384H259.859M228.222 421.282V458.563M228.222 421.282H259.859M228.222 458.563V495.845M228.222 458.563H259.859M228.222 495.845V533.126M228.222 495.845H259.859M228.222 533.126V570.408M228.222 533.126H259.859M228.222 570.408V607.69M228.222 570.408H259.859M228.222 607.69V644.971M228.222 607.69H259.859M228.222 644.971V682.253M228.222 644.971H259.859M228.222 682.253V719.534M228.222 682.253H259.859M228.222 719.534V756.816M228.222 719.534H259.859M228.222 756.816H259.859M259.859 11.1845V48.4661M259.859 11.1845H291.496M259.859 48.4661V85.7477M259.859 48.4661H291.496M259.859 85.7477V123.029M259.859 85.7477H291.496M259.859 123.029V160.311M259.859 123.029H291.496M259.859 160.311V197.592M259.859 160.311H291.496M259.859 197.592V234.874M259.859 197.592H291.496M259.859 234.874V272.155M259.859 234.874H291.496M259.859 272.155V309.437M259.859 272.155H291.496M259.859 309.437V346.719M259.859 309.437H291.496M259.859 346.719V384M259.859 346.719H291.496M259.859 384V421.282M259.859 384H291.496M259.859 421.282V458.563M259.859 421.282H291.496M259.859 458.563V495.845M259.859 458.563H291.496M259.859 495.845V533.126M259.859 495.845H291.496M259.859 533.126V570.408M259.859 533.126H291.496M259.859 570.408V607.69M259.859 570.408H291.496M259.859 607.69V644.971M259.859 607.69H291.496M259.859 644.971V682.253M259.859 644.971H291.496M259.859 682.253V719.534M259.859 682.253H291.496M259.859 719.534V756.816M259.859 719.534H291.496M259.859 756.816H291.496M291.496 11.1845V48.4661M291.496 11.1845H323.132M291.496 48.4661V85.7477M291.496 48.4661H323.132M291.496 85.7477V123.029M291.496 85.7477H323.132M291.496 123.029V160.311M291.496 123.029H323.132M291.496 160.311V197.592M291.496 160.311H323.132M291.496 197.592V234.874M291.496 197.592H323.132M291.496 234.874V272.155M291.496 234.874H323.132M291.496 272.155V309.437M291.496 272.155H323.132M291.496 309.437V346.719M291.496 309.437H323.132M291.496 346.719V384M291.496 346.719H323.132M291.496 384V421.282M291.496 384H323.132M291.496 421.282V458.563M291.496 421.282H323.132M291.496 458.563V495.845M291.496 458.563H323.132M291.496 495.845V533.126M291.496 495.845H323.132M291.496 533.126V570.408M291.496 533.126H323.132M291.496 570.408V607.69M291.496 570.408H323.132M291.496 607.69V644.971M291.496 607.69H323.132M291.496 644.971V682.253M291.496 644.971H323.132M291.496 682.253V719.534M291.496 682.253H323.132M291.496 719.534V756.816M291.496 719.534H323.132M291.496 756.816H323.132M323.132 11.1845V48.4661M323.132 11.1845H354.769M323.132 48.4661V85.7477M323.132 48.4661H354.769M323.132 85.7477V123.029M323.132 85.7477H354.769M323.132 123.029V160.311M323.132 123.029H354.769M323.132 160.311V197.592M323.132 160.311H354.769M323.132 197.592V234.874M323.132 197.592H354.769M323.132 234.874V272.155M323.132 234.874H354.769M323.132 272.155V309.437M323.132 272.155H354.769M323.132 309.437V346.719M323.132 309.437H354.769M323.132 346.719V384M323.132 346.719H354.769M323.132 384V421.282M323.132 384H354.769M323.132 421.282V458.563M323.132 421.282H354.769M323.132 458.563V495.845M323.132 458.563H354.769M323.132 495.845V533.126M323.132 495.845H354.769M323.132 533.126V570.408M323.132 533.126H354.769M323.132 570.408V607.69M323.132 570.408H354.769M323.132 607.69V644.971M323.132 607.69H354.769M323.132 644.971V682.253M323.132 644.971H354.769M323.132 682.253V719.534M323.132 682.253H354.769M323.132 719.534V756.816M323.132 719.534H354.769M323.132 756.816H354.769M354.769 11.1845V48.4661M354.769 11.1845H386.406M354.769 48.4661V85.7477M354.769 48.4661H386.406M354.769 85.7477V123.029M354.769 85.7477H386.406M354.769 123.029V160.311M354.769 123.029H386.406M354.769 160.311V197.592M354.769 160.311H386.406M354.769 197.592V234.874M354.769 197.592H386.406M354.769 234.874V272.155M354.769 234.874H386.406M354.769 272.155V309.437M354.769 272.155H386.406M354.769 309.437V346.719M354.769 309.437H386.406M354.769 346.719V384M354.769 346.719H386.406M354.769 384V421.282M354.769 384H386.406M354.769 421.282V458.563M354.769 421.282H386.406M354.769 458.563V495.845M354.769 458.563H386.406M354.769 495.845V533.126M354.769 495.845H386.406M354.769 533.126V570.408M354.769 533.126H386.406M354.769 570.408V607.69M354.769 570.408H386.406M354.769 607.69V644.971M354.769 607.69H386.406M354.769 644.971V682.253M354.769 644.971H386.406M354.769 682.253V719.534M354.769 682.253H386.406M354.769 719.534V756.816M354.769 719.534H386.406M354.769 756.816H386.406M386.406 11.1845V48.4661M386.406 11.1845H418.043M386.406 48.4661V85.7477M386.406 48.4661H418.043M386.406 85.7477V123.029M386.406 85.7477H418.043M386.406 123.029V160.311M386.406 123.029H418.043M386.406 160.311V197.592M386.406 160.311H418.043M386.406 197.592V234.874M386.406 197.592H418.043M386.406 234.874V272.155M386.406 234.874H418.043M386.406 272.155V309.437M386.406 272.155H418.043M386.406 309.437V346.719M386.406 309.437H418.043M386.406 346.719V384M386.406 346.719H418.043M386.406 384V421.282M386.406 384H418.043M386.406 421.282V458.563M386.406 421.282H418.043M386.406 458.563V495.845M386.406 458.563H418.043M386.406 495.845V533.126M386.406 495.845H418.043M386.406 533.126V570.408M386.406 533.126H418.043M386.406 570.408V607.69M386.406 570.408H418.043M386.406 607.69V644.971M386.406 607.69H418.043M386.406 644.971V682.253M386.406 644.971H418.043M386.406 682.253V719.534M386.406 682.253H418.043M386.406 719.534V756.816M386.406 719.534H418.043M386.406 756.816H418.043M418.043 11.1845V48.4661M418.043 11.1845H449.679M418.043 48.4661V85.7477M418.043 48.4661H449.679M418.043 85.7477V123.029M418.043 85.7477H449.679M418.043 123.029V160.311M418.043 123.029H449.679M418.043 160.311V197.592M418.043 160.311H449.679M418.043 197.592V234.874M418.043 197.592H449.679M418.043 234.874V272.155M418.043 234.874H449.679M418.043 272.155V309.437M418.043 272.155H449.679M418.043 309.437V346.719M418.043 309.437H449.679M418.043 346.719V384M418.043 346.719H449.679M418.043 384V421.282M418.043 384H449.679M418.043 421.282V458.563M418.043 421.282H449.679M418.043 458.563V495.845M418.043 458.563H449.679M418.043 495.845V533.126M418.043 495.845H449.679M418.043 533.126V570.408M418.043 533.126H449.679M418.043 570.408V607.69M418.043 570.408H449.679M418.043 607.69V644.971M418.043 607.69H449.679M418.043 644.971V682.253M418.043 644.971H449.679M418.043 682.253V719.534M418.043 682.253H449.679M418.043 719.534V756.816M418.043 719.534H449.679M418.043 756.816H449.679M449.679 11.1845V48.4661M449.679 11.1845H481.316M449.679 48.4661V85.7477M449.679 48.4661H481.316M449.679 85.7477V123.029M449.679 85.7477H481.316M449.679 123.029V160.311M449.679 123.029H481.316M449.679 160.311V197.592M449.679 160.311H481.316M449.679 197.592V234.874M449.679 197.592H481.316M449.679 234.874V272.155M449.679 234.874H481.316M449.679 272.155V309.437M449.679 272.155H481.316M449.679 309.437V346.719M449.679 309.437H481.316M449.679 346.719V384M449.679 346.719H481.316M449.679 384V421.282M449.679 384H481.316M449.679 421.282V458.563M449.679 421.282H481.316M449.679 458.563V495.845M449.679 458.563H481.316M449.679 495.845V533.126M449.679 495.845H481.316M449.679 533.126V570.408M449.679 533.126H481.316M449.679 570.408V607.69M449.679 570.408H481.316M449.679 607.69V644.971M449.679 607.69H481.316M449.679 644.971V682.253M449.679 644.971H481.316M449.679 682.253V719.534M449.679 682.253H481.316M449.679 719.534V756.816M449.679 719.534H481.316M449.679 756.816H481.316M481.316 11.1845V48.4661M481.316 11.1845H512.953M481.316 48.4661V85.7477M481.316 48.4661H512.953M481.316 85.7477V123.029M481.316 85.7477H512.953M481.316 123.029V160.311M481.316 123.029H512.953M481.316 160.311V197.592M481.316 160.311H512.953M481.316 197.592V234.874M481.316 197.592H512.953M481.316 234.874V272.155M481.316 234.874H512.953M481.316 272.155V309.437M481.316 272.155H512.953M481.316 309.437V346.719M481.316 309.437H512.953M481.316 346.719V384M481.316 346.719H512.953M481.316 384V421.282M481.316 384H512.953M481.316 421.282V458.563M481.316 421.282H512.953M481.316 458.563V495.845M481.316 458.563H512.953M481.316 495.845V533.126M481.316 495.845H512.953M481.316 533.126V570.408M481.316 533.126H512.953M481.316 570.408V607.69M481.316 570.408H512.953M481.316 607.69V644.971M481.316 607.69H512.953M481.316 644.971V682.253M481.316 644.971H512.953M481.316 682.253V719.534M481.316 682.253H512.953M481.316 719.534V756.816M481.316 719.534H512.953M481.316 756.816H512.953M512.953 11.1845V48.4661M512.953 11.1845H544.59M512.953 48.4661V85.7477M512.953 48.4661H544.59M512.953 85.7477V123.029M512.953 85.7477H544.59M512.953 123.029V160.311M512.953 123.029H544.59M512.953 160.311V197.592M512.953 160.311H544.59M512.953 197.592V234.874M512.953 197.592H544.59M512.953 234.874V272.155M512.953 234.874H544.59M512.953 272.155V309.437M512.953 272.155H544.59M512.953 309.437V346.719M512.953 309.437H544.59M512.953 346.719V384M512.953 346.719H544.59M512.953 384V421.282M512.953 384H544.59M512.953 421.282V458.563M512.953 421.282H544.59M512.953 458.563V495.845M512.953 458.563H544.59M512.953 495.845V533.126M512.953 495.845H544.59M512.953 533.126V570.408M512.953 533.126H544.59M512.953 570.408V607.69M512.953 570.408H544.59M512.953 607.69V644.971M512.953 607.69H544.59M512.953 644.971V682.253M512.953 644.971H544.59M512.953 682.253V719.534M512.953 682.253H544.59M512.953 719.534V756.816M512.953 719.534H544.59M512.953 756.816H544.59M544.59 11.1845V48.4661M544.59 11.1845H576.226M544.59 48.4661V85.7477M544.59 48.4661H576.226M544.59 85.7477V123.029M544.59 85.7477H576.226M544.59 123.029V160.311M544.59 123.029H576.226M544.59 160.311V197.592M544.59 160.311H576.226M544.59 197.592V234.874M544.59 197.592H576.226M544.59 234.874V272.155M544.59 234.874H576.226M544.59 272.155V309.437M544.59 272.155H576.226M544.59 309.437V346.719M544.59 309.437H576.226M544.59 346.719V384M544.59 346.719H576.226M544.59 384V421.282M544.59 384H576.226M544.59 421.282V458.563M544.59 421.282H576.226M544.59 458.563V495.845M544.59 458.563H576.226M544.59 495.845V533.126M544.59 495.845H576.226M544.59 533.126V570.408M544.59 533.126H576.226M544.59 570.408V607.69M544.59 570.408H576.226M544.59 607.69V644.971M544.59 607.69H576.226M544.59 644.971V682.253M544.59 644.971H576.226M544.59 682.253V719.534M544.59 682.253H576.226M544.59 719.534V756.816M544.59 719.534H576.226M544.59 756.816H576.226M576.226 11.1845V48.4661M576.226 11.1845H607.863M576.226 48.4661V85.7477M576.226 48.4661H607.863M576.226 85.7477V123.029M576.226 85.7477H607.863M576.226 123.029V160.311M576.226 123.029H607.863M576.226 160.311V197.592M576.226 160.311H607.863M576.226 197.592V234.874M576.226 197.592H607.863M576.226 234.874V272.155M576.226 234.874H607.863M576.226 272.155V309.437M576.226 272.155H607.863M576.226 309.437V346.719M576.226 309.437H607.863M576.226 346.719V384M576.226 346.719H607.863M576.226 384V421.282M576.226 384H607.863M576.226 421.282V458.563M576.226 421.282H607.863M576.226 458.563V495.845M576.226 458.563H607.863M576.226 495.845V533.126M576.226 495.845H607.863M576.226 533.126V570.408M576.226 533.126H607.863M576.226 570.408V607.69M576.226 570.408H607.863M576.226 607.69V644.971M576.226 607.69H607.863M576.226 644.971V682.253M576.226 644.971H607.863M576.226 682.253V719.534M576.226 682.253H607.863M576.226 719.534V756.816M576.226 719.534H607.863M576.226 756.816H607.863M607.863 11.1845V48.4661M607.863 11.1845H639.5M607.863 48.4661V85.7477M607.863 48.4661H639.5M607.863 85.7477V123.029M607.863 85.7477H639.5M607.863 123.029V160.311M607.863 123.029H639.5M607.863 160.311V197.592M607.863 160.311H639.5M607.863 197.592V234.874M607.863 197.592H639.5M607.863 234.874V272.155M607.863 234.874H639.5M607.863 272.155V309.437M607.863 272.155H639.5M607.863 309.437V346.719M607.863 309.437H639.5M607.863 346.719V384M607.863 346.719H639.5M607.863 384V421.282M607.863 384H639.5M607.863 421.282V458.563M607.863 421.282H639.5M607.863 458.563V495.845M607.863 458.563H639.5M607.863 495.845V533.126M607.863 495.845H639.5M607.863 533.126V570.408M607.863 533.126H639.5M607.863 570.408V607.69M607.863 570.408H639.5M607.863 607.69V644.971M607.863 607.69H639.5M607.863 644.971V682.253M607.863 644.971H639.5M607.863 682.253V719.534M607.863 682.253H639.5M607.863 719.534V756.816M607.863 719.534H639.5M607.863 756.816H639.5M639.5 11.1845V48.4661M639.5 11.1845H671.137M639.5 48.4661V85.7477M639.5 48.4661H671.137M639.5 85.7477V123.029M639.5 85.7477H671.137M639.5 123.029V160.311M639.5 123.029H671.137M639.5 160.311V197.592M639.5 160.311H671.137M639.5 197.592V234.874M639.5 197.592H671.137M639.5 234.874V272.155M639.5 234.874H671.137M639.5 272.155V309.437M639.5 272.155H671.137M639.5 309.437V346.719M639.5 309.437H671.137M639.5 346.719V384M639.5 346.719H671.137M639.5 384V421.282M639.5 384H671.137M639.5 421.282V458.563M639.5 421.282H671.137M639.5 458.563V495.845M639.5 458.563H671.137M639.5 495.845V533.126M639.5 495.845H671.137M639.5 533.126V570.408M639.5 533.126H671.137M639.5 570.408V607.69M639.5 570.408H671.137M639.5 607.69V644.971M639.5 607.69H671.137M639.5 644.971V682.253M639.5 644.971H671.137M639.5 682.253V719.534M639.5 682.253H671.137M639.5 719.534V756.816M639.5 719.534H671.137M639.5 756.816H671.137M671.137 11.1845V48.4661M671.137 11.1845H702.774M671.137 48.4661V85.7477M671.137 48.4661H702.774M671.137 85.7477V123.029M671.137 85.7477H702.774M671.137 123.029V160.311M671.137 123.029H702.774M671.137 160.311V197.592M671.137 160.311H702.774M671.137 197.592V234.874M671.137 197.592H702.774M671.137 234.874V272.155M671.137 234.874H702.774M671.137 272.155V309.437M671.137 272.155H702.774M671.137 309.437V346.719M671.137 309.437H702.774M671.137 346.719V384M671.137 346.719H702.774M671.137 384V421.282M671.137 384H702.774M671.137 421.282V458.563M671.137 421.282H702.774M671.137 458.563V495.845M671.137 458.563H702.774M671.137 495.845V533.126M671.137 495.845H702.774M671.137 533.126V570.408M671.137 533.126H702.774M671.137 570.408V607.69M671.137 570.408H702.774M671.137 607.69V644.971M671.137 607.69H702.774M671.137 644.971V682.253M671.137 644.971H702.774M671.137 682.253V719.534M671.137 682.253H702.774M671.137 719.534V756.816M671.137 719.534H702.774M671.137 756.816H702.774M702.774 11.1845V48.4661M702.774 11.1845H734.41M702.774 48.4661V85.7477M702.774 48.4661H734.41M702.774 85.7477V123.029M702.774 85.7477H734.41M702.774 123.029V160.311M702.774 123.029H734.41M702.774 160.311V197.592M702.774 160.311H734.41M702.774 197.592V234.874M702.774 197.592H734.41M702.774 234.874V272.155M702.774 234.874H734.41M702.774 272.155V309.437M702.774 272.155H734.41M702.774 309.437V346.719M702.774 309.437H734.41M702.774 346.719V384M702.774 346.719H734.41M702.774 384V421.282M702.774 384H734.41M702.774 421.282V458.563M702.774 421.282H734.41M702.774 458.563V495.845M702.774 458.563H734.41M702.774 495.845V533.126M702.774 495.845H734.41M702.774 533.126V570.408M702.774 533.126H734.41M702.774 570.408V607.69M702.774 570.408H734.41M702.774 607.69V644.971M702.774 607.69H734.41M702.774 644.971V682.253M702.774 644.971H734.41M702.774 682.253V719.534M702.774 682.253H734.41M702.774 719.534V756.816M702.774 719.534H734.41M702.774 756.816H734.41M734.41 11.1845V48.4661M734.41 11.1845H766.047M734.41 48.4661V85.7477M734.41 48.4661H766.047M734.41 85.7477V123.029M734.41 85.7477H766.047M734.41 123.029V160.311M734.41 123.029H766.047M734.41 160.311V197.592M734.41 160.311H766.047M734.41 197.592V234.874M734.41 197.592H766.047M734.41 234.874V272.155M734.41 234.874H766.047M734.41 272.155V309.437M734.41 272.155H766.047M734.41 309.437V346.719M734.41 309.437H766.047M734.41 346.719V384M734.41 346.719H766.047M734.41 384V421.282M734.41 384H766.047M734.41 421.282V458.563M734.41 421.282H766.047M734.41 458.563V495.845M734.41 458.563H766.047M734.41 495.845V533.126M734.41 495.845H766.047M734.41 533.126V570.408M734.41 533.126H766.047M734.41 570.408V607.69M734.41 570.408H766.047M734.41 607.69V644.971M734.41 607.69H766.047M734.41 644.971V682.253M734.41 644.971H766.047M734.41 682.253V719.534M734.41 682.253H766.047M734.41 719.534V756.816M734.41 719.534H766.047M734.41 756.816H766.047M766.047 11.1845V48.4661M766.047 11.1845H797.684M766.047 48.4661V85.7477M766.047 48.4661H797.684M766.047 85.7477V123.029M766.047 85.7477H797.684M766.047 123.029V160.311M766.047 123.029H797.684M766.047 160.311V197.592M766.047 160.311H797.684M766.047 197.592V234.874M766.047 197.592H797.684M766.047 234.874V272.155M766.047 234.874H797.684M766.047 272.155V309.437M766.047 272.155H797.684M766.047 309.437V346.719M766.047 309.437H797.684M766.047 346.719V384M766.047 346.719H797.684M766.047 384V421.282M766.047 384H797.684M766.047 421.282V458.563M766.047 421.282H797.684M766.047 458.563V495.845M766.047 458.563H797.684M766.047 495.845V533.126M766.047 495.845H797.684M766.047 533.126V570.408M766.047 533.126H797.684M766.047 570.408V607.69M766.047 570.408H797.684M766.047 607.69V644.971M766.047 607.69H797.684M766.047 644.971V682.253M766.047 644.971H797.684M766.047 682.253V719.534M766.047 682.253H797.684M766.047 719.534V756.816M766.047 719.534H797.684M766.047 756.816H797.684M797.684 11.1845V48.4661M797.684 11.1845H829.321M797.684 48.4661V85.7477M797.684 48.4661H829.321M797.684 85.7477V123.029M797.684 85.7477H829.321M797.684 123.029V160.311M797.684 123.029H829.321M797.684 160.311V197.592M797.684 160.311H829.321M797.684 197.592V234.874M797.684 197.592H829.321M797.684 234.874V272.155M797.684 234.874H829.321M797.684 272.155V309.437M797.684 272.155H829.321M797.684 309.437V346.719M797.684 309.437H829.321M797.684 346.719V384M797.684 346.719H829.321M797.684 384V421.282M797.684 384H829.321M797.684 421.282V458.563M797.684 421.282H829.321M797.684 458.563V495.845M797.684 458.563H829.321M797.684 495.845V533.126M797.684 495.845H829.321M797.684 533.126V570.408M797.684 533.126H829.321M797.684 570.408V607.69M797.684 570.408H829.321M797.684 607.69V644.971M797.684 607.69H829.321M797.684 644.971V682.253M797.684 644.971H829.321M797.684 682.253V719.534M797.684 682.253H829.321M797.684 719.534V756.816M797.684 719.534H829.321M797.684 756.816H829.321M829.321 11.1845V48.4661M829.321 11.1845H860.957M829.321 48.4661V85.7477M829.321 48.4661H860.957M829.321 85.7477V123.029M829.321 85.7477H860.957M829.321 123.029V160.311M829.321 123.029H860.957M829.321 160.311V197.592M829.321 160.311H860.957M829.321 197.592V234.874M829.321 197.592H860.957M829.321 234.874V272.155M829.321 234.874H860.957M829.321 272.155V309.437M829.321 272.155H860.957M829.321 309.437V346.719M829.321 309.437H860.957M829.321 346.719V384M829.321 346.719H860.957M829.321 384V421.282M829.321 384H860.957M829.321 421.282V458.563M829.321 421.282H860.957M829.321 458.563V495.845M829.321 458.563H860.957M829.321 495.845V533.126M829.321 495.845H860.957M829.321 533.126V570.408M829.321 533.126H860.957M829.321 570.408V607.69M829.321 570.408H860.957M829.321 607.69V644.971M829.321 607.69H860.957M829.321 644.971V682.253M829.321 644.971H860.957M829.321 682.253V719.534M829.321 682.253H860.957M829.321 719.534V756.816M829.321 719.534H860.957M829.321 756.816H860.957M860.957 11.1845V48.4661M860.957 11.1845H892.594M860.957 48.4661V85.7477M860.957 48.4661H892.594M860.957 85.7477V123.029M860.957 85.7477H892.594M860.957 123.029V160.311M860.957 123.029H892.594M860.957 160.311V197.592M860.957 160.311H892.594M860.957 197.592V234.874M860.957 197.592H892.594M860.957 234.874V272.155M860.957 234.874H892.594M860.957 272.155V309.437M860.957 272.155H892.594M860.957 309.437V346.719M860.957 309.437H892.594M860.957 346.719V384M860.957 346.719H892.594M860.957 384V421.282M860.957 384H892.594M860.957 421.282V458.563M860.957 421.282H892.594M860.957 458.563V495.845M860.957 458.563H892.594M860.957 495.845V533.126M860.957 495.845H892.594M860.957 533.126V570.408M860.957 533.126H892.594M860.957 570.408V607.69M860.957 570.408H892.594M860.957 607.69V644.971M860.957 607.69H892.594M860.957 644.971V682.253M860.957 644.971H892.594M860.957 682.253V719.534M860.957 682.253H892.594M860.957 719.534V756.816M860.957 719.534H892.594M860.957 756.816H892.594M892.594 11.1845V48.4661M892.594 11.1845H924.231M892.594 48.4661V85.7477M892.594 48.4661H924.231M892.594 85.7477V123.029M892.594 85.7477H924.231M892.594 123.029V160.311M892.594 123.029H924.231M892.594 160.311V197.592M892.594 160.311H924.231M892.594 197.592V234.874M892.594 197.592H924.231M892.594 234.874V272.155M892.594 234.874H924.231M892.594 272.155V309.437M892.594 272.155H924.231M892.594 309.437V346.719M892.594 309.437H924.231M892.594 346.719V384M892.594 346.719H924.231M892.594 384V421.282M892.594 384H924.231M892.594 421.282V458.563M892.594 421.282H924.231M892.594 458.563V495.845M892.594 458.563H924.231M892.594 495.845V533.126M892.594 495.845H924.231M892.594 533.126V570.408M892.594 533.126H924.231M892.594 570.408V607.69M892.594 570.408H924.231M892.594 607.69V644.971M892.594 607.69H924.231M892.594 644.971V682.253M892.594 644.971H924.231M892.594 682.253V719.534M892.594 682.253H924.231M892.594 719.534V756.816M892.594 719.534H924.231M892.594 756.816H924.231M924.231 11.1845V48.4661M924.231 11.1845H955.868M924.231 48.4661V85.7477M924.231 48.4661H955.868M924.231 85.7477V123.029M924.231 85.7477H955.868M924.231 123.029V160.311M924.231 123.029H955.868M924.231 160.311V197.592M924.231 160.311H955.868M924.231 197.592V234.874M924.231 197.592H955.868M924.231 234.874V272.155M924.231 234.874H955.868M924.231 272.155V309.437M924.231 272.155H955.868M924.231 309.437V346.719M924.231 309.437H955.868M924.231 346.719V384M924.231 346.719H955.868M924.231 384V421.282M924.231 384H955.868M924.231 421.282V458.563M924.231 421.282H955.868M924.231 458.563V495.845M924.231 458.563H955.868M924.231 495.845V533.126M924.231 495.845H955.868M924.231 533.126V570.408M924.231 533.126H955.868M924.231 570.408V607.69M924.231 570.408H955.868M924.231 607.69V644.971M924.231 607.69H955.868M924.231 644.971V682.253M924.231 644.971H955.868M924.231 682.253V719.534M924.231 682.253H955.868M924.231 719.534V756.816M924.231 719.534H955.868M924.231 756.816H955.868M955.868 11.1845V48.4661M955.868 11.1845H987.504M955.868 48.4661V85.7477M955.868 48.4661H987.504M955.868 85.7477V123.029M955.868 85.7477H987.504M955.868 123.029V160.311M955.868 123.029H987.504M955.868 160.311V197.592M955.868 160.311H987.504M955.868 197.592V234.874M955.868 197.592H987.504M955.868 234.874V272.155M955.868 234.874H987.504M955.868 272.155V309.437M955.868 272.155H987.504M955.868 309.437V346.719M955.868 309.437H987.504M955.868 346.719V384M955.868 346.719H987.504M955.868 384V421.282M955.868 384H987.504M955.868 421.282V458.563M955.868 421.282H987.504M955.868 458.563V495.845M955.868 458.563H987.504M955.868 495.845V533.126M955.868 495.845H987.504M955.868 533.126V570.408M955.868 533.126H987.504M955.868 570.408V607.69M955.868 570.408H987.504M955.868 607.69V644.971M955.868 607.69H987.504M955.868 644.971V682.253M955.868 644.971H987.504M955.868 682.253V719.534M955.868 682.253H987.504M955.868 719.534V756.816M955.868 719.534H987.504M955.868 756.816H987.504M987.504 11.1845V48.4661M987.504 11.1845H1019.14M987.504 48.4661V85.7477M987.504 48.4661H1019.14M987.504 85.7477V123.029M987.504 85.7477H1019.14M987.504 123.029V160.311M987.504 123.029H1019.14M987.504 160.311V197.592M987.504 160.311H1019.14M987.504 197.592V234.874M987.504 197.592H1019.14M987.504 234.874V272.155M987.504 234.874H1019.14M987.504 272.155V309.437M987.504 272.155H1019.14M987.504 309.437V346.719M987.504 309.437H1019.14M987.504 346.719V384M987.504 346.719H1019.14M987.504 384V421.282M987.504 384H1019.14M987.504 421.282V458.563M987.504 421.282H1019.14M987.504 458.563V495.845M987.504 458.563H1019.14M987.504 495.845V533.126M987.504 495.845H1019.14M987.504 533.126V570.408M987.504 533.126H1019.14M987.504 570.408V607.69M987.504 570.408H1019.14M987.504 607.69V644.971M987.504 607.69H1019.14M987.504 644.971V682.253M987.504 644.971H1019.14M987.504 682.253V719.534M987.504 682.253H1019.14M987.504 719.534V756.816M987.504 719.534H1019.14M987.504 756.816H1019.14M1019.14 11.1845V48.4661M1019.14 11.1845H1050.78M1019.14 48.4661V85.7477M1019.14 48.4661H1050.78M1019.14 85.7477V123.029M1019.14 85.7477H1050.78M1019.14 123.029V160.311M1019.14 123.029H1050.78M1019.14 160.311V197.592M1019.14 160.311H1050.78M1019.14 197.592V234.874M1019.14 197.592H1050.78M1019.14 234.874V272.155M1019.14 234.874H1050.78M1019.14 272.155V309.437M1019.14 272.155H1050.78M1019.14 309.437V346.719M1019.14 309.437H1050.78M1019.14 346.719V384M1019.14 346.719H1050.78M1019.14 384V421.282M1019.14 384H1050.78M1019.14 421.282V458.563M1019.14 421.282H1050.78M1019.14 458.563V495.845M1019.14 458.563H1050.78M1019.14 495.845V533.126M1019.14 495.845H1050.78M1019.14 533.126V570.408M1019.14 533.126H1050.78M1019.14 570.408V607.69M1019.14 570.408H1050.78M1019.14 607.69V644.971M1019.14 607.69H1050.78M1019.14 644.971V682.253M1019.14 644.971H1050.78M1019.14 682.253V719.534M1019.14 682.253H1050.78M1019.14 719.534V756.816M1019.14 719.534H1050.78M1019.14 756.816H1050.78M1050.78 11.1845V48.4661M1050.78 11.1845H1082.41M1050.78 48.4661V85.7477M1050.78 48.4661H1082.41M1050.78 85.7477V123.029M1050.78 85.7477H1082.41M1050.78 123.029V160.311M1050.78 123.029H1082.41M1050.78 160.311V197.592M1050.78 160.311H1082.41M1050.78 197.592V234.874M1050.78 197.592H1082.41M1050.78 234.874V272.155M1050.78 234.874H1082.41M1050.78 272.155V309.437M1050.78 272.155H1082.41M1050.78 309.437V346.719M1050.78 309.437H1082.41M1050.78 346.719V384M1050.78 346.719H1082.41M1050.78 384V421.282M1050.78 384H1082.41M1050.78 421.282V458.563M1050.78 421.282H1082.41M1050.78 458.563V495.845M1050.78 458.563H1082.41M1050.78 495.845V533.126M1050.78 495.845H1082.41M1050.78 533.126V570.408M1050.78 533.126H1082.41M1050.78 570.408V607.69M1050.78 570.408H1082.41M1050.78 607.69V644.971M1050.78 607.69H1082.41M1050.78 644.971V682.253M1050.78 644.971H1082.41M1050.78 682.253V719.534M1050.78 682.253H1082.41M1050.78 719.534V756.816M1050.78 719.534H1082.41M1050.78 756.816H1082.41M1082.41 11.1845V48.4661M1082.41 11.1845H1114.05M1082.41 48.4661V85.7477M1082.41 48.4661H1114.05M1082.41 85.7477V123.029M1082.41 85.7477H1114.05M1082.41 123.029V160.311M1082.41 123.029H1114.05M1082.41 160.311V197.592M1082.41 160.311H1114.05M1082.41 197.592V234.874M1082.41 197.592H1114.05M1082.41 234.874V272.155M1082.41 234.874H1114.05M1082.41 272.155V309.437M1082.41 272.155H1114.05M1082.41 309.437V346.719M1082.41 309.437H1114.05M1082.41 346.719V384M1082.41 346.719H1114.05M1082.41 384V421.282M1082.41 384H1114.05M1082.41 421.282V458.563M1082.41 421.282H1114.05M1082.41 458.563V495.845M1082.41 458.563H1114.05M1082.41 495.845V533.126M1082.41 495.845H1114.05M1082.41 533.126V570.408M1082.41 533.126H1114.05M1082.41 570.408V607.69M1082.41 570.408H1114.05M1082.41 607.69V644.971M1082.41 607.69H1114.05M1082.41 644.971V682.253M1082.41 644.971H1114.05M1082.41 682.253V719.534M1082.41 682.253H1114.05M1082.41 719.534V756.816M1082.41 719.534H1114.05M1082.41 756.816H1114.05M1114.05 11.1845V48.4661M1114.05 11.1845H1145.69M1114.05 48.4661V85.7477M1114.05 48.4661H1145.69M1114.05 85.7477V123.029M1114.05 85.7477H1145.69M1114.05 123.029V160.311M1114.05 123.029H1145.69M1114.05 160.311V197.592M1114.05 160.311H1145.69M1114.05 197.592V234.874M1114.05 197.592H1145.69M1114.05 234.874V272.155M1114.05 234.874H1145.69M1114.05 272.155V309.437M1114.05 272.155H1145.69M1114.05 309.437V346.719M1114.05 309.437H1145.69M1114.05 346.719V384M1114.05 346.719H1145.69M1114.05 384V421.282M1114.05 384H1145.69M1114.05 421.282V458.563M1114.05 421.282H1145.69M1114.05 458.563V495.845M1114.05 458.563H1145.69M1114.05 495.845V533.126M1114.05 495.845H1145.69M1114.05 533.126V570.408M1114.05 533.126H1145.69M1114.05 570.408V607.69M1114.05 570.408H1145.69M1114.05 607.69V644.971M1114.05 607.69H1145.69M1114.05 644.971V682.253M1114.05 644.971H1145.69M1114.05 682.253V719.534M1114.05 682.253H1145.69M1114.05 719.534V756.816M1114.05 719.534H1145.69M1114.05 756.816H1145.69M1145.69 11.1845V48.4661M1145.69 11.1845H1177.33M1145.69 48.4661V85.7477M1145.69 48.4661H1177.33M1145.69 85.7477V123.029M1145.69 85.7477H1177.33M1145.69 123.029V160.311M1145.69 123.029H1177.33M1145.69 160.311V197.592M1145.69 160.311H1177.33M1145.69 197.592V234.874M1145.69 197.592H1177.33M1145.69 234.874V272.155M1145.69 234.874H1177.33M1145.69 272.155V309.437M1145.69 272.155H1177.33M1145.69 309.437V346.719M1145.69 309.437H1177.33M1145.69 346.719V384M1145.69 346.719H1177.33M1145.69 384V421.282M1145.69 384H1177.33M1145.69 421.282V458.563M1145.69 421.282H1177.33M1145.69 458.563V495.845M1145.69 458.563H1177.33M1145.69 495.845V533.126M1145.69 495.845H1177.33M1145.69 533.126V570.408M1145.69 533.126H1177.33M1145.69 570.408V607.69M1145.69 570.408H1177.33M1145.69 607.69V644.971M1145.69 607.69H1177.33M1145.69 644.971V682.253M1145.69 644.971H1177.33M1145.69 682.253V719.534M1145.69 682.253H1177.33M1145.69 719.534V756.816M1145.69 719.534H1177.33M1145.69 756.816H1177.33M1177.33 11.1845V48.4661M1177.33 11.1845H1208.96M1177.33 48.4661V85.7477M1177.33 48.4661H1208.96M1177.33 85.7477V123.029M1177.33 85.7477H1208.96M1177.33 123.029V160.311M1177.33 123.029H1208.96M1177.33 160.311V197.592M1177.33 160.311H1208.96M1177.33 197.592V234.874M1177.33 197.592H1208.96M1177.33 234.874V272.155M1177.33 234.874H1208.96M1177.33 272.155V309.437M1177.33 272.155H1208.96M1177.33 309.437V346.719M1177.33 309.437H1208.96M1177.33 346.719V384M1177.33 346.719H1208.96M1177.33 384V421.282M1177.33 384H1208.96M1177.33 421.282V458.563M1177.33 421.282H1208.96M1177.33 458.563V495.845M1177.33 458.563H1208.96M1177.33 495.845V533.126M1177.33 495.845H1208.96M1177.33 533.126V570.408M1177.33 533.126H1208.96M1177.33 570.408V607.69M1177.33 570.408H1208.96M1177.33 607.69V644.971M1177.33 607.69H1208.96M1177.33 644.971V682.253M1177.33 644.971H1208.96M1177.33 682.253V719.534M1177.33 682.253H1208.96M1177.33 719.534V756.816M1177.33 719.534H1208.96M1177.33 756.816H1208.96M1208.96 11.1845V48.4661M1208.96 11.1845H1240.6M1208.96 48.4661V85.7477M1208.96 48.4661H1240.6M1208.96 85.7477V123.029M1208.96 85.7477H1240.6M1208.96 123.029V160.311M1208.96 123.029H1240.6M1208.96 160.311V197.592M1208.96 160.311H1240.6M1208.96 197.592V234.874M1208.96 197.592H1240.6M1208.96 234.874V272.155M1208.96 234.874H1240.6M1208.96 272.155V309.437M1208.96 272.155H1240.6M1208.96 309.437V346.719M1208.96 309.437H1240.6M1208.96 346.719V384M1208.96 346.719H1240.6M1208.96 384V421.282M1208.96 384H1240.6M1208.96 421.282V458.563M1208.96 421.282H1240.6M1208.96 458.563V495.845M1208.96 458.563H1240.6M1208.96 495.845V533.126M1208.96 495.845H1240.6M1208.96 533.126V570.408M1208.96 533.126H1240.6M1208.96 570.408V607.69M1208.96 570.408H1240.6M1208.96 607.69V644.971M1208.96 607.69H1240.6M1208.96 644.971V682.253M1208.96 644.971H1240.6M1208.96 682.253V719.534M1208.96 682.253H1240.6M1208.96 719.534V756.816M1208.96 719.534H1240.6M1208.96 756.816H1240.6M1240.6 11.1845V48.4661M1240.6 11.1845H1272.24M1240.6 48.4661V85.7477M1240.6 48.4661H1272.24M1240.6 85.7477V123.029M1240.6 85.7477H1272.24M1240.6 123.029V160.311M1240.6 123.029H1272.24M1240.6 160.311V197.592M1240.6 160.311H1272.24M1240.6 197.592V234.874M1240.6 197.592H1272.24M1240.6 234.874V272.155M1240.6 234.874H1272.24M1240.6 272.155V309.437M1240.6 272.155H1272.24M1240.6 309.437V346.719M1240.6 309.437H1272.24M1240.6 346.719V384M1240.6 346.719H1272.24M1240.6 384V421.282M1240.6 384H1272.24M1240.6 421.282V458.563M1240.6 421.282H1272.24M1240.6 458.563V495.845M1240.6 458.563H1272.24M1240.6 495.845V533.126M1240.6 495.845H1272.24M1240.6 533.126V570.408M1240.6 533.126H1272.24M1240.6 570.408V607.69M1240.6 570.408H1272.24M1240.6 607.69V644.971M1240.6 607.69H1272.24M1240.6 644.971V682.253M1240.6 644.971H1272.24M1240.6 682.253V719.534M1240.6 682.253H1272.24M1240.6 719.534V756.816M1240.6 719.534H1272.24M1240.6 756.816H1272.24M1272.24 11.1845V48.4661M1272.24 11.1845H1303.87M1272.24 48.4661V85.7477M1272.24 48.4661H1303.87M1272.24 85.7477V123.029M1272.24 85.7477H1303.87M1272.24 123.029V160.311M1272.24 123.029H1303.87M1272.24 160.311V197.592M1272.24 160.311H1303.87M1272.24 197.592V234.874M1272.24 197.592H1303.87M1272.24 234.874V272.155M1272.24 234.874H1303.87M1272.24 272.155V309.437M1272.24 272.155H1303.87M1272.24 309.437V346.719M1272.24 309.437H1303.87M1272.24 346.719V384M1272.24 346.719H1303.87M1272.24 384V421.282M1272.24 384H1303.87M1272.24 421.282V458.563M1272.24 421.282H1303.87M1272.24 458.563V495.845M1272.24 458.563H1303.87M1272.24 495.845V533.126M1272.24 495.845H1303.87M1272.24 533.126V570.408M1272.24 533.126H1303.87M1272.24 570.408V607.69M1272.24 570.408H1303.87M1272.24 607.69V644.971M1272.24 607.69H1303.87M1272.24 644.971V682.253M1272.24 644.971H1303.87M1272.24 682.253V719.534M1272.24 682.253H1303.87M1272.24 719.534V756.816M1272.24 719.534H1303.87M1272.24 756.816H1303.87M1303.87 11.1845V48.4661M1303.87 11.1845H1335.51V48.4661M1303.87 48.4661V85.7477M1303.87 48.4661H1335.51M1303.87 85.7477V123.029M1303.87 85.7477H1335.51M1303.87 123.029V160.311M1303.87 123.029H1335.51M1303.87 160.311V197.592M1303.87 160.311H1335.51M1303.87 197.592V234.874M1303.87 197.592H1335.51M1303.87 234.874V272.155M1303.87 234.874H1335.51M1303.87 272.155V309.437M1303.87 272.155H1335.51M1303.87 309.437V346.719M1303.87 309.437H1335.51M1303.87 346.719V384M1303.87 346.719H1335.51M1303.87 384V421.282M1303.87 384H1335.51M1303.87 421.282V458.563M1303.87 421.282H1335.51M1303.87 458.563V495.845M1303.87 458.563H1335.51M1303.87 495.845V533.126M1303.87 495.845H1335.51M1303.87 533.126V570.408M1303.87 533.126H1335.51M1303.87 570.408V607.69M1303.87 570.408H1335.51M1303.87 607.69V644.971M1303.87 607.69H1335.51M1303.87 644.971V682.253M1303.87 644.971H1335.51M1303.87 682.253V719.534M1303.87 682.253H1335.51M1303.87 719.534V756.816M1303.87 719.534H1335.51M1303.87 756.816H1335.51V719.534M1335.51 48.4661V85.7477M1335.51 85.7477V123.029M1335.51 123.029V160.311M1335.51 160.311V197.592M1335.51 197.592V234.874M1335.51 234.874V272.155M1335.51 272.155V309.437M1335.51 309.437V346.719M1335.51 346.719V384M1335.51 384V421.282M1335.51 421.282V458.563M1335.51 458.563V495.845M1335.51 495.845V533.126M1335.51 533.126V570.408M1335.51 570.408V607.69M1335.51 607.69V644.971M1335.51 644.971V682.253M1335.51 682.253V719.534" stroke="url(#paint0_radial_42_498)" stroke-opacity="0.6" stroke-width="0.805493"/>
</g>
<g style="mix-blend-mode:soft-light" opacity="0.8">
<path d="M70.0381 149.126V160.311M70.0381 160.311V171.495M70.0381 160.311H60.5471M70.0381 160.311H79.5292M70.0381 447.379V458.563M70.0381 458.563V469.748M70.0381 458.563H60.5471M70.0381 458.563H79.5292M70.0381 745.631V756.816M70.0381 756.816V768M70.0381 756.816H60.5471M70.0381 756.816H79.5292M323.132 149.126V160.311M323.132 160.311V171.495M323.132 160.311H313.641M323.132 160.311H332.623M323.132 447.379V458.563M323.132 458.563V469.748M323.132 458.563H313.641M323.132 458.563H332.623M323.132 745.631V756.816M323.132 756.816V768M323.132 756.816H313.641M323.132 756.816H332.623M576.226 149.126V160.311M576.226 160.311V171.495M576.226 160.311H566.735M576.226 160.311H585.718M576.226 447.379V458.563M576.226 458.563V469.748M576.226 458.563H566.735M576.226 458.563H585.718M576.226 745.631V756.816M576.226 756.816V768M576.226 756.816H566.735M576.226 756.816H585.718M829.321 149.126V160.311M829.321 160.311V171.495M829.321 160.311H819.83M829.321 160.311H838.812M829.321 447.379V458.563M829.321 458.563V469.748M829.321 458.563H819.83M829.321 458.563H838.812M829.321 745.631V756.816M829.321 756.816V768M829.321 756.816H819.83M829.321 756.816H838.812M1082.41 149.126V160.311M1082.41 160.311V171.495M1082.41 160.311H1072.92M1082.41 160.311H1091.91M1082.41 447.379V458.563M1082.41 458.563V469.748M1082.41 458.563H1072.92M1082.41 458.563H1091.91M1082.41 745.631V756.816M1082.41 756.816V768M1082.41 756.816H1072.92M1082.41 756.816H1091.91M1335.51 149.126V160.311M1335.51 160.311V171.495M1335.51 160.311H1326.02M1335.51 160.311H1345M1335.51 447.379V458.563M1335.51 458.563V469.748M1335.51 458.563H1326.02M1335.51 458.563H1345M1335.51 745.631V756.816M1335.51 756.816V768M1335.51 756.816H1326.02M1335.51 756.816H1345M70.0381 0.000213623V11.1847M70.0381 11.1847V22.3692M70.0381 11.1847H60.5471M70.0381 11.1847H79.5292M70.0381 298.253V309.437M70.0381 309.437V320.622M70.0381 309.437H60.5471M70.0381 309.437H79.5292M70.0381 596.505V607.69M70.0381 607.69V618.874M70.0381 607.69H60.5471M70.0381 607.69H79.5292M323.132 0.000213623V11.1847M323.132 11.1847V22.3692M323.132 11.1847H313.641M323.132 11.1847H332.623M323.132 298.253V309.437M323.132 309.437V320.622M323.132 309.437H313.641M323.132 309.437H332.623M323.132 596.505V607.69M323.132 607.69V618.874M323.132 607.69H313.641M323.132 607.69H332.623M576.226 0.000213623V11.1847M576.226 11.1847V22.3692M576.226 11.1847H566.735M576.226 11.1847H585.718M576.226 298.253V309.437M576.226 309.437V320.622M576.226 309.437H566.735M576.226 309.437H585.718M576.226 596.505V607.69M576.226 607.69V618.874M576.226 607.69H566.735M576.226 607.69H585.718M829.321 0.000213623V11.1847M829.321 11.1847V22.3692M829.321 11.1847H819.83M829.321 11.1847H838.812M829.321 298.253V309.437M829.321 309.437V320.622M829.321 309.437H819.83M829.321 309.437H838.812M829.321 596.505V607.69M829.321 607.69V618.874M829.321 607.69H819.83M829.321 607.69H838.812M1082.41 0.000213623V11.1847M1082.41 11.1847V22.3692M1082.41 11.1847H1072.92M1082.41 11.1847H1091.91M1082.41 298.253V309.437M1082.41 309.437V320.622M1082.41 309.437H1072.92M1082.41 309.437H1091.91M1082.41 596.505V607.69M1082.41 607.69V618.874M1082.41 607.69H1072.92M1082.41 607.69H1091.91M1335.51 0.000213623V11.1847M1335.51 11.1847V22.3692M1335.51 11.1847H1326.02M1335.51 11.1847H1345M1335.51 298.253V309.437M1335.51 309.437V320.622M1335.51 309.437H1326.02M1335.51 309.437H1345M1335.51 596.505V607.69M1335.51 607.69V618.874M1335.51 607.69H1326.02M1335.51 607.69H1345M-56.509 149.126V160.311M-56.509 160.311V171.495M-56.509 160.311H-66M-56.509 160.311H-47.0179M-56.509 447.379V458.563M-56.509 458.563V469.748M-56.509 458.563H-66M-56.509 458.563H-47.0179M-56.509 745.631V756.816M-56.509 756.816V768M-56.509 756.816H-66M-56.509 756.816H-47.0179M196.585 149.126V160.311M196.585 160.311V171.495M196.585 160.311H187.094M196.585 160.311H206.076M196.585 447.379V458.563M196.585 458.563V469.748M196.585 458.563H187.094M196.585 458.563H206.076M196.585 745.631V756.816M196.585 756.816V768M196.585 756.816H187.094M196.585 756.816H206.076M449.679 149.126V160.311M449.679 160.311V171.495M449.679 160.311H440.188M449.679 160.311H459.17M449.679 447.379V458.563M449.679 458.563V469.748M449.679 458.563H440.188M449.679 458.563H459.17M449.679 745.631V756.816M449.679 756.816V768M449.679 756.816H440.188M449.679 756.816H459.17M702.774 149.126V160.311M702.774 160.311V171.495M702.774 160.311H693.283M702.774 160.311H712.265M702.774 447.379V458.563M702.774 458.563V469.748M702.774 458.563H693.283M702.774 458.563H712.265M702.774 745.631V756.816M702.774 756.816V768M702.774 756.816H693.283M702.774 756.816H712.265M955.868 149.126V160.311M955.868 160.311V171.495M955.868 160.311H946.377M955.868 160.311H965.359M955.868 447.379V458.563M955.868 458.563V469.748M955.868 458.563H946.377M955.868 458.563H965.359M955.868 745.631V756.816M955.868 756.816V768M955.868 756.816H946.377M955.868 756.816H965.359M1208.96 149.126V160.311M1208.96 160.311V171.495M1208.96 160.311H1199.47M1208.96 160.311H1218.45M1208.96 447.379V458.563M1208.96 458.563V469.748M1208.96 458.563H1199.47M1208.96 458.563H1218.45M1208.96 745.631V756.816M1208.96 756.816V768M1208.96 756.816H1199.47M1208.96 756.816H1218.45M-56.509 0.000268606V11.1847M-56.509 11.1847V22.3692M-56.509 11.1847H-66M-56.509 11.1847H-47.0179M-56.509 298.253V309.437M-56.509 309.437V320.622M-56.509 309.437H-66M-56.509 309.437H-47.0179M-56.509 596.505V607.69M-56.509 607.69V618.874M-56.509 607.69H-66M-56.509 607.69H-47.0179M196.585 0.000213623V11.1847M196.585 11.1847V22.3692M196.585 11.1847H187.094M196.585 11.1847H206.076M196.585 298.253V309.437M196.585 309.437V320.622M196.585 309.437H187.094M196.585 309.437H206.076M196.585 596.505V607.69M196.585 607.69V618.874M196.585 607.69H187.094M196.585 607.69H206.076M449.679 0.000213623V11.1847M449.679 11.1847V22.3692M449.679 11.1847H440.188M449.679 11.1847H459.17M449.679 298.253V309.437M449.679 309.437V320.622M449.679 309.437H440.188M449.679 309.437H459.17M449.679 596.505V607.69M449.679 607.69V618.874M449.679 607.69H440.188M449.679 607.69H459.17M702.774 0.000213623V11.1847M702.774 11.1847V22.3692M702.774 11.1847H693.283M702.774 11.1847H712.265M702.774 298.253V309.437M702.774 309.437V320.622M702.774 309.437H693.283M702.774 309.437H712.265M702.774 596.505V607.69M702.774 607.69V618.874M702.774 607.69H693.283M702.774 607.69H712.265M955.868 0.000213623V11.1847M955.868 11.1847V22.3692M955.868 11.1847H946.377M955.868 11.1847H965.359M955.868 298.253V309.437M955.868 309.437V320.622M955.868 309.437H946.377M955.868 309.437H965.359M955.868 596.505V607.69M955.868 607.69V618.874M955.868 607.69H946.377M955.868 607.69H965.359M1208.96 0.000213623V11.1847M1208.96 11.1847V22.3692M1208.96 11.1847H1199.47M1208.96 11.1847H1218.45M1208.96 298.253V309.437M1208.96 309.437V320.622M1208.96 309.437H1199.47M1208.96 309.437H1218.45M1208.96 596.505V607.69M1208.96 607.69V618.874M1208.96 607.69H1199.47M1208.96 607.69H1218.45" stroke="url(#paint1_radial_42_498)" stroke-opacity="0.6" stroke-width="1.61099"/>
</g>
</g>
<defs>
<radialGradient id="paint0_radial_42_498" cx="0" cy="0" r="1" gradientUnits="userSpaceOnUse" gradientTransform="translate(639.5 384) rotate(90) scale(372.816 696.009)">
<stop stop-color="white"/>
<stop offset="1" stop-color="white" stop-opacity="0"/>
</radialGradient>
<radialGradient id="paint1_radial_42_498" cx="0" cy="0" r="1" gradientUnits="userSpaceOnUse" gradientTransform="translate(639.5 384) rotate(90) scale(384 705.5)">
<stop stop-color="white"/>
<stop offset="1" stop-color="white" stop-opacity="0"/>
</radialGradient>
</defs>
</svg>
