<svg width="500" height="500" viewBox="0 0 500 500" fill="none" xmlns="http://www.w3.org/2000/svg">
<g clip-path="url(#clip0_36_55)">
<rect width="500" height="500" rx="250" fill="#08040A"/>
<ellipse cx="459.5" cy="471" rx="384.5" ry="360" fill="url(#paint0_radial_36_55)" fill-opacity="0.15"/>
<ellipse cx="74.5" cy="323" rx="342.5" ry="356" fill="url(#paint1_radial_36_55)" fill-opacity="0.15"/>
<ellipse cx="337.5" cy="50" rx="337.5" ry="350" fill="url(#paint2_radial_36_55)" fill-opacity="0.15"/>
<path d="M101.768 145H133.568L148.268 306.4H148.868L164.468 145H200.468L216.068 306.4H216.668L231.368 145H259.868L238.568 355H197.468L182.468 213.4H181.868L166.868 355H123.068L101.768 145ZM252.607 145H299.707L320.707 295.3H321.307L342.307 145H389.407V355H358.207V196H357.607L333.607 355H306.007L282.007 196H281.407V355H252.607V145Z" fill="url(#paint3_linear_36_55)"/>
</g>
<defs>
<radialGradient id="paint0_radial_36_55" cx="0" cy="0" r="1" gradientUnits="userSpaceOnUse" gradientTransform="translate(459.5 471) rotate(90) scale(412.56 440.637)">
<stop offset="0.07" stop-color="#BD00FF"/>
<stop offset="1" stop-color="#08040A" stop-opacity="0"/>
</radialGradient>
<radialGradient id="paint1_radial_36_55" cx="0" cy="0" r="1" gradientUnits="userSpaceOnUse" gradientTransform="translate(74.5 323) rotate(90) scale(407.976 392.505)">
<stop offset="0.07" stop-color="#8280FF"/>
<stop offset="1" stop-color="#08040A" stop-opacity="0"/>
</radialGradient>
<radialGradient id="paint2_radial_36_55" cx="0" cy="0" r="1" gradientUnits="userSpaceOnUse" gradientTransform="translate(337.5 50) rotate(90) scale(401.1 386.775)">
<stop offset="0.07" stop-color="#89B8FF"/>
<stop offset="1" stop-color="#08040A" stop-opacity="0"/>
</radialGradient>
<linearGradient id="paint3_linear_36_55" x1="402" y1="145" x2="97.3228" y2="355.467" gradientUnits="userSpaceOnUse">
<stop offset="0.125" stop-color="#BD00FF"/>
<stop offset="0.71" stop-color="#70A9FF"/>
<stop offset="1" stop-color="white"/>
</linearGradient>
<clipPath id="clip0_36_55">
<rect width="500" height="500" rx="250" fill="white"/>
</clipPath>
</defs>
</svg>
